<?xml version="1.0" encoding="UTF-8" standalone="no"?>
<svg xmlns="http://www.w3.org/2000/svg" version="1.2" baseProfile="tiny" viewBox="0.00 0.00 500.00 500.00">
<path fill="#fbbb63" d="
  M 228.02 133.41
  A 0.37 0.37 0.0 0 0 227.47 133.75
  Q 227.61 138.94 227.43 144.63
  C 227.03 157.96 235.29 159.89 244.77 165.16
  A 3.32 3.31 -75.4 0 1 246.48 168.08
  L 246.44 182.31
  Q 246.43 183.67 245.37 182.82
  L 244.24 181.92
  Q 243.25 181.13 243.23 179.86
  L 242.98 169.28
  A 1.44 1.43 13.9 0 0 242.24 168.06
  C 232.74 162.86 224.21 159.57 224.15 146.81
  Q 224.11 136.42 224.09 126.38
  Q 224.09 125.14 225.15 125.76
  Q 229.52 128.29 233.77 130.60
  Q 238.93 133.39 241.44 136.03
  C 247.08 141.94 246.70 151.77 246.54 159.70
  Q 246.51 161.40 245.10 160.44
  L 244.41 159.96
  A 3.12 3.09 -74.1 0 1 243.06 157.51
  C 242.92 153.52 243.68 148.86 242.07 145.21
  C 240.81 142.36 238.89 139.77 236.15 138.11
  Q 232.05 135.61 228.02 133.41
  Z"
/>
<path fill="#fbbb63" d="
  M 272.46 133.67
  A 0.40 0.40 0.0 0 0 271.87 133.28
  C 264.00 137.52 256.17 141.04 256.77 151.80
  Q 256.92 154.52 256.72 157.18
  A 3.71 3.65 72.6 0 1 255.41 159.73
  L 254.77 160.26
  Q 253.40 161.40 253.31 159.62
  Q 252.93 152.21 254.05 144.80
  Q 255.18 137.31 261.83 133.14
  Q 267.98 129.29 275.06 125.61
  A 0.39 0.39 0.0 0 1 275.63 125.96
  Q 275.63 136.98 275.51 146.87
  C 275.35 159.32 267.47 162.67 258.01 167.63
  Q 256.93 168.20 256.91 169.42
  L 256.72 179.08
  Q 256.69 180.83 255.39 182.00
  L 254.70 182.63
  Q 253.38 183.81 253.37 182.05
  L 253.30 168.56
  A 4.13 4.12 75.8 0 1 255.47 164.91
  Q 260.20 162.37 264.67 160.02
  C 270.78 156.79 272.72 150.64 272.36 143.52
  Q 272.10 138.55 272.46 133.67
  Z"
/>
<path fill="#fbbb63" d="
  M 201.80 148.92
  Q 201.81 152.98 201.84 157.54
  C 201.91 166.57 208.21 169.92 215.07 173.70
  A 2.67 2.67 0.0 0 1 216.41 175.67
  L 216.59 176.99
  Q 216.76 178.25 215.63 177.68
  Q 210.10 174.92 204.69 171.18
  Q 196.79 165.74 196.57 156.50
  Q 196.39 148.70 196.59 141.31
  A 0.19 0.19 0.0 0 1 196.87 141.15
  Q 207.32 147.18 215.50 152.06
  Q 225.10 157.80 224.87 168.71
  Q 224.77 173.70 224.54 178.19
  A 1.41 1.39 17.4 0 0 225.22 179.47
  L 234.28 184.92
  Q 235.53 185.67 235.69 187.13
  L 235.78 187.94
  Q 235.97 189.57 234.54 188.75
  L 222.75 181.97
  A 3.88 3.85 16.2 0 1 220.82 178.48
  Q 221.06 172.68 221.10 167.22
  Q 221.17 159.96 215.01 155.72
  Q 210.07 152.32 202.51 148.49
  Q 201.80 148.12 201.80 148.92
  Z"
/>
<path fill="#fbbb63" d="
  M 297.60 148.13
  Q 291.97 151.30 286.49 154.49
  C 280.59 157.91 278.03 163.25 278.53 169.97
  Q 278.86 174.44 278.86 178.78
  A 3.58 3.56 -15.3 0 1 277.08 181.88
  L 265.26 188.75
  Q 264.01 189.47 264.01 188.03
  L 264.01 187.50
  Q 264.01 185.80 265.46 184.93
  L 274.46 179.54
  A 1.06 1.06 0.0 0 0 274.97 178.69
  Q 275.19 174.75 274.92 170.52
  C 274.38 162.10 277.64 155.85 285.22 151.44
  Q 293.66 146.54 302.56 141.43
  A 0.47 0.47 0.0 0 1 303.27 141.85
  Q 303.16 146.80 303.34 152.86
  C 303.59 161.53 301.26 167.31 293.79 172.05
  Q 289.16 175.00 284.39 177.62
  Q 282.79 178.49 283.23 176.73
  L 283.47 175.74
  Q 283.91 173.95 285.56 173.12
  Q 289.43 171.17 292.54 168.82
  C 298.97 163.96 298.30 155.59 297.94 148.32
  A 0.23 0.23 0.0 0 0 297.60 148.13
  Z"
/>
<path fill="#fbbb63" d="
  M 180.06 187.33
  Q 184.48 189.80 189.03 192.59
  C 194.67 196.06 200.24 197.27 206.29 193.75
  Q 211.13 190.92 215.91 187.90
  A 2.38 2.38 0.0 0 1 218.24 187.77
  Q 224.87 191.05 231.04 195.10
  Q 232.26 195.90 230.89 196.38
  L 230.26 196.61
  A 3.60 3.60 0.0 0 1 227.62 196.51
  Q 223.35 194.63 219.13 191.75
  A 2.48 2.47 -43.8 0 0 216.41 191.70
  C 209.60 195.97 204.31 200.65 195.58 198.91
  Q 192.11 198.22 187.71 195.61
  Q 179.62 190.79 171.60 186.34
  A 0.60 0.60 0.0 0 1 171.61 185.29
  Q 177.13 182.31 183.46 178.44
  C 188.62 175.29 194.80 174.94 200.23 177.45
  Q 205.90 180.08 211.65 183.78
  Q 212.74 184.48 211.58 185.08
  L 210.83 185.47
  A 2.61 2.58 44.8 0 1 208.44 185.47
  C 202.58 182.46 198.35 178.87 191.24 180.63
  C 187.44 181.57 183.57 184.43 180.06 186.43
  A 0.52 0.52 0.0 0 0 180.06 187.33
  Z"
/>
<path fill="#fbbb63" d="
  M 319.64 187.35
  A 0.52 0.52 0.0 0 0 319.66 186.46
  Q 316.13 184.35 312.54 182.27
  C 307.28 179.22 301.28 179.53 296.22 182.76
  Q 293.96 184.21 291.40 185.40
  A 3.22 3.22 0.0 0 1 288.63 185.38
  L 288.22 185.18
  Q 286.86 184.51 288.14 183.71
  C 294.47 179.71 301.73 174.92 309.44 175.86
  Q 313.11 176.31 319.08 180.01
  Q 323.87 182.98 328.25 185.40
  A 0.43 0.43 0.0 0 1 328.25 186.15
  Q 318.85 191.50 309.77 196.82
  Q 303.74 200.34 296.43 198.83
  C 292.05 197.93 287.18 194.24 283.35 191.66
  A 2.51 2.50 45.1 0 0 280.57 191.65
  Q 276.06 194.65 271.89 196.50
  A 3.18 3.17 44.5 0 1 269.38 196.52
  L 268.77 196.26
  Q 267.49 195.72 268.69 195.01
  Q 274.26 191.71 280.57 188.11
  Q 282.44 187.05 284.34 188.15
  Q 287.99 190.28 291.28 192.51
  C 297.44 196.70 303.48 196.93 309.89 193.05
  Q 314.86 190.04 319.64 187.35
  Z"
/>
<path fill="#fbbb63" d="
  M 180.03 217.09
  Q 184.07 219.51 187.94 221.54
  C 195.87 225.71 201.53 221.87 208.23 218.17
  Q 209.32 217.57 210.48 218.03
  L 211.74 218.54
  Q 212.83 218.97 211.85 219.60
  Q 203.08 225.20 197.05 227.17
  Q 190.97 229.15 184.30 225.45
  Q 177.78 221.83 171.57 218.01
  A 0.41 0.41 0.0 0 1 171.58 217.31
  Q 180.77 212.00 189.50 206.93
  C 196.36 202.95 203.47 203.36 209.94 207.57
  Q 213.16 209.66 216.12 211.46
  A 3.09 3.08 46.0 0 0 219.25 211.52
  L 227.40 206.99
  A 3.41 3.39 41.1 0 1 230.32 206.80
  L 231.14 207.13
  Q 232.55 207.69 231.23 208.44
  L 219.25 215.30
  A 3.80 3.78 45.9 0 1 215.36 215.23
  Q 210.81 212.41 206.09 209.64
  Q 199.05 205.50 191.74 209.49
  Q 185.76 212.75 180.03 216.20
  Q 179.30 216.64 180.03 217.09
  Z"
/>
<path fill="#fbbb63" d="
  M 319.66 216.16
  Q 314.27 213.01 308.79 209.83
  Q 300.80 205.20 292.83 210.00
  Q 288.43 212.66 283.99 215.37
  A 3.32 3.31 44.2 0 1 280.60 215.41
  L 268.66 208.54
  Q 267.09 207.64 268.78 207.01
  L 269.62 206.70
  Q 271.20 206.12 272.65 206.97
  L 280.77 211.75
  A 2.49 2.48 -46.8 0 0 283.42 211.66
  C 291.65 206.09 299.20 200.92 309.35 206.50
  Q 317.65 211.07 328.01 217.24
  A 0.50 0.50 0.0 0 1 328.01 218.09
  Q 321.18 222.30 314.45 225.90
  C 310.26 228.14 305.66 228.42 301.30 226.65
  Q 294.30 223.80 287.73 219.49
  Q 286.89 218.94 287.81 218.52
  L 289.36 217.81
  A 2.15 2.15 0.0 0 1 291.35 217.91
  C 298.35 222.05 304.08 225.87 312.31 221.29
  Q 316.14 219.16 319.67 217.04
  A 0.51 0.51 0.0 0 0 319.66 216.16
  Z"
/>
<path fill="#fbbb63" d="
  M 297.33 255.26
  A 0.38 0.37 -73.6 0 0 297.89 254.95
  C 298.36 246.08 298.69 237.17 289.47 232.53
  Q 286.97 231.26 284.55 229.60
  A 2.89 2.86 -77.1 0 1 283.34 227.64
  L 283.19 226.52
  Q 282.99 225.08 284.27 225.77
  C 293.69 230.84 302.91 235.79 303.18 246.98
  Q 303.37 254.52 303.17 261.87
  Q 303.15 262.57 302.55 262.20
  Q 294.25 257.17 285.85 252.49
  C 278.24 248.24 274.15 242.02 274.84 233.07
  Q 275.17 228.77 275.00 224.91
  A 1.31 1.29 14.2 0 0 274.36 223.85
  L 265.01 218.27
  Q 264.00 217.67 264.00 216.50
  L 263.99 214.75
  Q 263.99 213.92 264.70 214.34
  L 277.15 221.65
  A 3.31 3.31 0.0 0 1 278.79 224.51
  Q 278.77 228.84 278.47 232.79
  C 277.95 239.71 280.22 245.41 286.32 248.93
  Q 291.89 252.16 297.33 255.26
  Z"
/>
<path fill="#fbbb63" d="
  M 201.92 254.54
  A 0.64 0.64 0.0 0 0 202.89 255.05
  Q 208.22 251.82 212.85 249.22
  C 223.25 243.38 220.93 234.59 220.97 224.80
  A 3.80 3.79 75.1 0 1 222.85 221.54
  L 234.84 214.58
  Q 236.01 213.90 235.84 215.24
  L 235.68 216.41
  A 3.09 3.09 0.0 0 1 234.16 218.68
  L 225.44 223.72
  A 1.68 1.68 0.0 0 0 224.59 225.20
  Q 224.59 229.00 224.86 233.25
  C 225.34 240.66 222.50 247.12 216.27 250.87
  Q 207.27 256.28 197.23 262.06
  Q 196.69 262.38 196.66 261.75
  Q 196.33 254.20 196.57 246.87
  Q 196.87 237.85 204.11 232.73
  Q 209.39 229.00 215.60 225.76
  Q 216.84 225.12 216.60 226.49
  L 216.41 227.60
  A 3.24 3.23 80.7 0 1 214.74 229.93
  C 208.43 233.28 202.26 236.74 201.88 244.72
  Q 201.64 249.80 201.92 254.54
  Z"
/>
<path fill="#fbbb63" d="
  M 228.34 269.98
  Q 232.12 267.95 235.95 265.51
  C 243.06 260.96 243.70 254.51 243.12 246.54
  A 3.31 3.30 -21.3 0 1 244.37 243.70
  L 245.05 243.16
  Q 246.32 242.16 246.39 243.77
  C 246.74 251.33 247.00 260.36 242.42 266.37
  Q 240.31 269.14 234.65 272.39
  Q 229.66 275.25 224.85 277.88
  A 0.59 0.59 0.0 0 1 223.97 277.34
  Q 224.25 271.03 224.11 264.58
  Q 223.90 255.07 224.63 251.91
  C 226.79 242.58 234.51 239.61 242.21 235.62
  A 1.85 1.84 76.6 0 0 243.20 234.00
  L 243.24 223.82
  A 3.11 3.10 70.2 0 1 244.34 221.47
  L 245.07 220.85
  Q 246.41 219.73 246.42 221.47
  L 246.49 235.09
  Q 246.51 237.29 244.58 238.34
  C 235.74 243.15 227.35 245.51 227.38 257.72
  Q 227.39 263.42 227.50 269.49
  A 0.57 0.57 0.0 0 0 228.34 269.98
  Z"
/>
<path fill="#fbbb63" d="
  M 272.34 269.77
  Q 272.16 264.70 272.35 258.41
  C 272.53 252.33 270.45 246.95 265.18 243.82
  Q 260.48 241.02 255.71 238.74
  A 4.08 4.07 12.8 0 1 253.40 235.07
  L 253.38 221.46
  Q 253.37 220.11 254.55 220.76
  Q 255.17 221.10 255.65 221.65
  Q 256.74 222.92 256.75 224.60
  L 256.78 234.49
  Q 256.78 235.16 257.38 235.46
  C 266.72 240.17 275.24 243.98 275.47 256.24
  Q 275.65 265.36 275.56 277.60
  A 0.42 0.42 0.0 0 1 274.93 277.97
  Q 270.08 275.25 264.96 272.31
  Q 258.61 268.66 256.72 265.75
  C 252.90 259.89 253.11 250.55 253.39 243.77
  Q 253.47 241.92 254.81 243.20
  L 255.61 243.96
  A 3.82 3.79 -66.8 0 1 256.79 246.94
  C 256.40 253.89 256.57 260.61 262.86 264.86
  Q 266.69 267.46 271.79 270.12
  A 0.38 0.38 0.0 0 0 272.34 269.77
  Z"
/>
<path fill="#fbbb63" d="
  M 275.91 307.48
  L 275.80 311.50
  Q 275.79 311.99 276.26 312.13
  Q 279.39 313.07 281.37 310.91
  Q 281.85 310.39 281.59 311.05
  L 281.11 312.32
  A 0.93 0.91 9.8 0 1 280.26 312.91
  L 274.25 312.95
  Q 273.56 312.95 273.97 312.40
  Q 274.10 312.22 274.29 312.16
  Q 274.50 312.08 274.50 311.85
  L 274.49 301.67
  A 1.41 1.39 25.6 0 0 274.17 300.78
  L 273.96 300.54
  Q 273.44 299.90 274.26 299.96
  Q 277.29 300.18 280.34 299.70
  Q 281.05 299.59 280.88 300.29
  Q 280.83 300.49 280.86 300.70
  Q 280.99 301.46 280.28 301.17
  Q 278.47 300.46 276.43 300.79
  Q 275.93 300.87 275.93 301.38
  L 275.91 305.68
  A 0.49 0.49 0.0 0 0 276.37 306.17
  Q 277.89 306.28 279.36 305.79
  Q 280.06 305.56 279.96 306.30
  L 279.83 307.24
  Q 279.77 307.70 279.41 307.42
  Q 278.24 306.52 276.26 307.03
  Q 275.92 307.12 275.91 307.48
  Z"
/>
<path fill="#fbbb63" d="
  M 222.24 301.13
  A 0.46 0.46 0.0 0 0 221.74 300.67
  L 217.66 301.02
  Q 217.27 301.05 217.34 300.66
  L 217.42 300.18
  A 0.41 0.40 -82.1 0 1 217.85 299.85
  Q 222.85 300.19 227.90 299.76
  Q 228.46 299.71 228.64 300.25
  L 228.73 300.50
  Q 228.99 301.27 228.21 301.07
  Q 226.27 300.57 224.30 300.73
  Q 223.79 300.77 223.79 301.29
  L 223.75 311.47
  Q 223.75 311.90 224.02 312.23
  L 224.24 312.50
  Q 224.65 312.99 224.01 313.00
  L 222.00 313.01
  Q 221.17 313.01 221.73 312.39
  Q 222.01 312.08 222.14 311.67
  Q 222.26 311.26 222.26 310.85
  Q 222.24 306.01 222.24 301.13
  Z"
/>
<path fill="#fbbb63" d="
  M 246.76 307.52
  Q 246.23 310.60 247.22 312.59
  Q 247.42 313.00 246.96 313.00
  L 245.00 312.98
  Q 244.13 312.97 244.84 312.30
  Q 244.98 312.17 245.04 311.99
  Q 245.12 311.77 245.12 311.53
  Q 245.29 305.64 244.84 300.17
  Q 244.82 299.96 245.03 299.96
  L 246.95 299.98
  Q 247.22 299.99 247.13 300.24
  Q 246.41 302.49 246.76 305.50
  Q 246.83 306.06 247.39 306.06
  L 253.35 306.11
  Q 253.88 306.11 253.96 305.59
  Q 254.41 302.83 253.59 300.44
  Q 253.43 299.96 253.94 299.96
  L 255.64 299.99
  Q 256.23 300.00 255.89 300.49
  L 255.53 301.01
  A 0.46 0.39 -32.5 0 0 255.46 301.24
  L 255.43 311.21
  Q 255.42 311.79 255.83 312.21
  Q 255.94 312.32 256.06 312.42
  Q 256.44 312.73 255.97 312.85
  Q 254.93 313.13 253.76 313.04
  Q 253.38 313.01 253.52 312.65
  Q 254.48 310.26 253.92 307.36
  Q 253.84 306.91 253.38 306.91
  L 247.40 306.97
  Q 246.85 306.98 246.76 307.52
  Z"
/>
<rect fill="#fbbb63" x="305.38" y="306.12" width="55.44" height="1.14" rx="0.54"/>
<rect fill="#fbbb63" x="139.12" y="307.00" width="55.48" height="1.28" rx="0.62"/>
<path fill="#fbbb63" d="
  M 124.78 322.16
  C 119.27 320.32 113.17 322.96 113.25 329.33
  Q 113.29 332.58 115.57 334.78
  Q 121.22 340.23 127.64 345.98
  Q 130.88 348.89 131.71 351.68
  C 133.91 359.10 130.20 366.48 122.23 367.72
  C 119.22 368.19 108.87 367.62 108.37 362.94
  Q 107.94 358.91 109.27 355.32
  A 0.31 0.31 0.0 0 1 109.72 355.17
  Q 109.96 355.31 109.96 355.60
  Q 109.97 365.05 118.35 365.95
  C 127.04 366.89 131.75 356.64 125.63 350.63
  Q 120.87 345.97 116.02 341.76
  Q 111.20 337.57 110.15 334.56
  C 107.00 325.55 115.01 317.76 124.18 319.64
  Q 126.48 320.11 128.94 320.03
  A 0.54 0.54 0.0 0 1 129.50 320.54
  Q 129.65 324.25 129.69 327.97
  Q 129.69 328.04 129.62 328.04
  L 129.37 328.06
  Q 129.04 328.09 128.99 327.77
  Q 128.18 323.30 124.78 322.16
  Z"
/>
<path fill="#fbbb63" d="
  M 377.02 366.01
  C 380.11 366.10 383.16 365.93 386.22 365.98
  Q 394.72 366.11 397.66 357.40
  Q 397.73 357.19 397.94 357.26
  L 398.24 357.37
  Q 398.46 357.45 398.38 357.67
  L 394.78 367.53
  Q 394.62 367.96 394.17 367.96
  Q 380.85 367.95 367.33 367.91
  Q 367.27 367.91 367.27 367.85
  L 367.27 367.59
  Q 367.27 367.29 367.58 367.28
  Q 372.21 367.14 372.20 362.38
  Q 372.16 345.36 372.18 326.80
  Q 372.18 322.39 367.53 321.88
  A 0.29 0.29 0.0 0 1 367.27 321.57
  L 367.28 321.31
  Q 367.29 321.21 367.39 321.22
  Q 377.41 321.43 387.83 321.25
  C 389.82 321.22 391.90 321.03 393.81 320.33
  Q 394.48 320.08 394.49 320.80
  L 394.52 328.25
  Q 394.53 328.34 394.46 328.34
  L 394.21 328.33
  Q 393.89 328.33 393.89 328.01
  C 393.81 325.43 392.37 323.36 389.61 323.41
  Q 383.23 323.52 377.11 323.39
  A 0.60 0.59 0.5 0 0 376.50 323.98
  L 376.48 343.51
  Q 376.48 344.11 377.07 344.11
  Q 382.67 344.14 387.35 344.07
  Q 390.19 344.04 391.15 340.58
  Q 391.54 339.15 391.59 340.63
  Q 391.76 344.85 391.50 349.86
  Q 391.49 350.06 391.30 350.07
  L 391.29 350.07
  Q 391.17 350.07 391.16 349.95
  C 390.99 347.95 389.74 345.93 387.52 345.97
  Q 381.85 346.05 377.10 345.85
  Q 376.45 345.82 376.45 346.47
  L 376.48 365.46
  Q 376.48 365.99 377.02 366.01
  Z"
/>
<path fill="#fbbb63" d="
  M 151.81 325.02
  L 151.91 341.75
  A 0.45 0.45 0.0 0 0 152.37 342.20
  Q 156.59 342.11 161.03 342.14
  Q 164.11 342.16 164.26 339.14
  Q 164.27 338.92 164.49 338.92
  L 164.76 338.91
  Q 164.95 338.91 164.95 339.10
  L 164.97 346.96
  Q 164.97 347.77 164.38 347.21
  Q 164.02 346.88 164.08 346.44
  C 164.26 344.99 162.33 344.03 161.18 344.07
  Q 157.12 344.21 152.38 344.06
  A 0.43 0.43 0.0 0 0 151.93 344.48
  L 151.90 360.57
  Q 151.90 361.30 152.63 361.25
  Q 156.53 360.99 160.41 361.16
  C 166.42 361.42 167.21 358.05 170.23 354.17
  Q 171.07 353.08 170.65 354.39
  Q 169.34 358.50 167.70 362.51
  Q 167.50 363.02 166.95 363.02
  L 144.28 362.99
  A 0.34 0.34 0.0 0 1 143.94 362.66
  L 143.93 362.35
  Q 143.92 362.23 144.05 362.24
  Q 147.96 362.54 147.98 358.61
  Q 148.03 342.62 148.01 327.20
  Q 148.01 323.72 144.42 323.62
  Q 144.17 323.61 144.17 323.36
  L 144.18 323.08
  Q 144.19 322.82 144.44 322.82
  Q 152.19 322.83 160.22 322.78
  C 162.40 322.77 164.56 322.48 166.68 322.01
  Q 167.27 321.88 167.30 322.48
  L 167.50 328.27
  Q 167.50 328.51 167.26 328.52
  L 166.98 328.52
  A 0.27 0.26 85.3 0 1 166.71 328.28
  C 166.43 325.75 165.29 324.47 162.77 324.58
  Q 157.13 324.83 152.21 324.63
  A 0.39 0.38 0.0 0 0 151.81 325.02
  Z"
/>
<path fill="#fbbb63" d="
  M 188.17 349.46
  Q 186.47 353.94 184.65 358.70
  Q 183.69 361.20 185.96 362.26
  Q 187.71 363.08 185.75 363.05
  L 176.00 362.90
  Q 175.93 362.90 175.93 362.84
  L 175.93 362.59
  Q 175.94 362.28 176.24 362.26
  Q 179.89 362.05 181.35 358.68
  Q 188.95 341.07 196.39 322.64
  Q 196.80 321.63 197.21 322.64
  Q 204.45 340.21 212.50 359.06
  Q 213.79 362.09 217.53 362.33
  Q 217.60 362.33 217.61 362.40
  L 217.67 362.68
  Q 217.73 363.01 217.40 363.00
  L 205.40 362.94
  Q 205.36 362.94 205.36 362.90
  L 205.29 362.58
  Q 205.24 362.32 205.51 362.29
  Q 208.61 361.95 207.56 358.97
  Q 206.01 354.52 204.15 349.79
  A 1.27 1.27 0.0 0 0 202.97 348.99
  L 188.81 349.01
  Q 188.34 349.02 188.17 349.46
  Z
  M 189.33 346.83
  A 0.32 0.32 0.0 0 0 189.63 347.27
  L 202.77 347.36
  A 0.32 0.32 0.0 0 0 203.07 346.93
  L 196.62 329.66
  A 0.32 0.32 0.0 0 0 196.02 329.66
  L 189.33 346.83
  Z"
/>
<path fill="#fbbb63" d="
  M 229.12 361.25
  Q 238.13 361.34 247.80 361.11
  C 251.56 361.01 253.63 357.83 254.57 354.58
  Q 254.63 354.38 254.84 354.37
  L 255.14 354.36
  Q 255.42 354.36 255.36 354.63
  L 253.64 362.48
  Q 253.53 362.98 253.01 362.99
  L 223.74 362.99
  Q 223.14 362.99 223.46 362.49
  L 247.15 325.12
  A 0.37 0.36 -74.2 0 0 246.84 324.56
  Q 237.63 324.63 228.83 324.47
  C 226.17 324.42 224.75 325.86 224.86 328.59
  Q 224.87 328.77 224.68 328.76
  L 224.39 328.74
  Q 224.23 328.74 224.23 328.58
  L 224.22 322.45
  Q 224.22 321.90 224.77 321.98
  C 226.84 322.28 228.94 322.71 231.04 322.72
  Q 240.45 322.78 248.94 322.70
  Q 250.68 322.68 252.34 322.13
  Q 253.93 321.60 253.03 323.01
  L 228.95 360.93
  A 0.21 0.20 -73.6 0 0 229.12 361.25
  Z"
/>
<path fill="#fbbb63" d="
  M 284.7224 364.0595
  A 21.14 20.92 90.4 0 1 263.9505 342.7740
  A 21.14 20.92 90.4 0 1 285.0176 321.7805
  A 21.14 20.92 90.4 0 1 305.7895 343.0660
  A 21.14 20.92 90.4 0 1 284.7224 364.0595
  Z
  M 285.0319 362.3797
  A 19.46 16.43 89.7 0 0 301.3598 342.8340
  A 19.46 16.43 89.7 0 0 284.8281 323.4603
  A 19.46 16.43 89.7 0 0 268.5002 343.0060
  A 19.46 16.43 89.7 0 0 285.0319 362.3797
  Z"
/>
<path fill="#fbbb63" d="
  M 349.87 354.49
  Q 349.77 340.74 349.79 327.07
  C 349.79 324.80 348.10 323.47 345.85 323.52
  Q 345.58 323.52 345.57 323.25
  L 345.56 322.99
  Q 345.56 322.81 345.74 322.81
  L 356.43 322.80
  Q 356.72 322.80 356.68 323.09
  L 356.64 323.36
  Q 356.62 323.48 356.50 323.49
  Q 352.44 323.53 352.41 327.31
  Q 352.27 343.63 352.40 358.26
  Q 352.42 360.52 352.84 362.87
  Q 353.16 364.63 351.93 363.32
  L 321.67 331.01
  Q 321.03 330.33 321.03 331.26
  Q 320.94 343.36 321.02 355.67
  C 321.04 359.45 320.66 362.34 325.18 362.48
  Q 325.36 362.48 325.37 362.66
  L 325.37 362.67
  Q 325.37 362.85 325.19 362.86
  Q 319.90 363.11 314.59 362.92
  Q 314.34 362.91 314.33 362.66
  L 314.33 362.39
  A 0.08 0.08 0.0 0 1 314.42 362.31
  Q 318.31 362.53 318.39 358.73
  Q 318.76 340.70 318.13 322.53
  Q 318.10 321.53 318.78 322.26
  L 349.19 354.76
  A 0.39 0.39 0.0 0 0 349.87 354.49
  Z"
/>
<path fill="#fbbb63" d="
  M 234.56 382.94
  A 6.36 6.36 0.0 0 1 228.20 389.30
  A 6.36 6.36 0.0 0 1 221.84 382.94
  A 6.36 6.36 0.0 0 1 228.20 376.58
  A 6.36 6.36 0.0 0 1 234.56 382.94
  Z
  M 228.2706 388.7193
  A 5.77 4.93 89.1 0 0 233.1094 382.8726
  A 5.77 4.93 89.1 0 0 228.0894 377.1807
  A 5.77 4.93 89.1 0 0 223.2506 383.0274
  A 5.77 4.93 89.1 0 0 228.2706 388.7193
  Z"
/>
<path fill="#fbbb63" d="
  M 196.29 384.81
  Q 195.96 386.89 196.75 388.58
  Q 196.93 388.98 196.50 388.99
  L 194.97 389.01
  Q 194.38 389.01 194.63 388.48
  Q 194.71 388.30 194.88 388.17
  Q 195.02 388.06 195.02 387.87
  L 194.97 377.47
  Q 194.97 376.68 195.71 376.93
  Q 196.02 377.03 196.35 376.98
  Q 197.04 376.88 196.67 377.46
  C 195.91 378.67 196.29 380.76 196.41 382.15
  Q 196.51 383.41 196.29 384.81
  Z"
/>
<path fill="#fbbb63" d="
  M 203.02 382.37
  Q 203.54 379.67 202.85 377.17
  Q 202.74 376.76 203.15 376.88
  Q 203.79 377.07 204.49 376.93
  Q 204.89 376.85 204.84 377.26
  Q 204.22 382.14 204.64 387.48
  C 204.66 387.79 204.76 388.01 204.92 388.28
  Q 205.38 388.99 204.53 389.00
  L 203.21 389.00
  Q 202.57 389.01 202.79 388.41
  Q 203.44 386.53 203.03 384.49
  A 5.60 5.57 44.9 0 1 203.02 382.37
  Z"
/>
<path fill="#fbbb63" d="
  M 253.44 377.64
  Q 251.41 377.12 249.92 377.91
  Q 249.22 378.28 249.23 377.49
  Q 249.23 377.11 249.50 376.91
  Q 249.68 376.78 250.04 376.79
  Q 254.56 376.94 259.25 376.85
  Q 259.44 376.84 259.45 377.03
  L 259.50 377.56
  Q 259.53 377.88 259.20 377.85
  L 255.56 377.48
  Q 254.93 377.42 254.93 378.05
  Q 254.88 382.74 254.95 387.34
  Q 254.95 387.74 255.10 388.10
  Q 255.16 388.28 255.29 388.41
  Q 255.69 388.85 255.10 388.95
  Q 254.24 389.09 253.39 388.87
  Q 252.89 388.75 253.27 388.40
  Q 253.86 387.88 253.82 387.00
  Q 253.61 382.83 253.90 378.27
  Q 253.94 377.76 253.44 377.64
  Z"
/>
<path fill="#fbbb63" d="
  M 278.26 383.30
  Q 277.27 383.23 277.27 384.23
  L 277.27 387.50
  Q 277.27 388.11 277.86 388.21
  Q 281.01 388.75 282.33 387.21
  Q 282.82 386.63 282.66 387.37
  C 282.47 388.26 282.01 389.10 280.97 389.03
  Q 278.49 388.88 276.20 389.03
  Q 275.64 389.07 275.73 388.51
  Q 276.60 382.71 275.73 377.26
  Q 275.64 376.69 276.21 376.78
  Q 278.48 377.13 281.17 376.75
  Q 281.90 376.65 281.76 377.37
  Q 281.74 377.48 281.76 377.58
  Q 281.91 378.22 281.30 377.99
  Q 279.86 377.45 277.97 377.62
  Q 277.25 377.68 277.26 378.40
  L 277.28 381.78
  Q 277.28 383.06 278.54 382.79
  L 280.49 382.38
  Q 281.24 382.21 281.23 382.98
  L 281.22 383.47
  Q 281.20 384.22 280.53 383.88
  Q 279.52 383.38 278.26 383.30
  Z"
/>
<path fill="#fbbb63" d="
  M 301.35 388.22
  Q 304.41 388.89 306.06 387.18
  Q 306.63 386.59 306.37 387.37
  L 306.01 388.46
  Q 305.85 388.95 305.33 388.97
  Q 302.49 389.08 299.75 388.94
  Q 298.75 388.89 299.50 388.25
  Q 299.67 388.11 299.76 387.91
  Q 299.93 387.56 299.92 387.25
  L 299.90 378.14
  Q 299.90 377.80 299.67 377.56
  Q 299.53 377.41 299.35 377.33
  Q 298.72 377.02 299.50 376.96
  L 300.79 376.86
  Q 301.33 376.82 301.27 377.37
  Q 300.62 382.76 301.09 387.93
  Q 301.12 388.17 301.35 388.22
  Z"
/>
<path fill="#fbbb63" d="
  M 200.74 382.95
  Q 201.50 382.83 202.18 383.03
  Q 202.30 383.07 202.18 383.09
  Q 199.69 383.47 197.26 383.16
  Q 197.15 383.15 197.11 383.03
  Q 197.10 382.98 197.11 382.93
  Q 197.13 382.85 197.21 382.85
  Q 198.00 382.86 198.78 382.97
  Q 199.76 383.10 200.74 382.95
  Z"
/>
</svg>
