<?xml version="1.0" encoding="UTF-8" standalone="no"?>
<svg xmlns="http://www.w3.org/2000/svg" version="1.2" baseProfile="tiny" viewBox="0.00 0.00 500.00 500.00">
<path fill="#000000" d="
  M 228.19 133.61
  A 0.52 0.52 0.0 0 0 227.44 134.07
  Q 227.49 140.25 227.52 146.43
  Q 227.55 155.95 235.54 160.24
  Q 240.04 162.66 244.79 165.23
  A 3.20 3.20 0.0 0 1 246.46 168.04
  L 246.47 182.10
  Q 246.47 183.75 245.12 182.80
  L 244.37 182.26
  Q 242.99 181.28 242.99 179.59
  L 243.01 169.66
  A 1.96 1.94 -76.0 0 0 241.99 167.94
  Q 238.13 165.83 234.16 163.70
  Q 224.07 158.26 224.04 146.04
  Q 224.01 136.34 224.02 125.91
  A 0.42 0.42 0.0 0 1 224.63 125.54
  Q 230.75 128.75 237.48 132.78
  C 247.16 138.59 246.99 149.41 246.37 159.78
  Q 246.27 161.39 244.97 160.44
  L 244.43 160.05
  Q 243.19 159.14 243.10 157.61
  C 242.88 153.95 243.51 149.83 242.41 146.32
  C 240.31 139.60 234.11 136.57 228.19 133.61
  Z"
/>
<path fill="#000000" d="
  M 272.41 133.38
  A 0.24 0.23 75.3 0 0 272.06 133.17
  C 264.47 137.85 257.06 139.95 256.78 150.66
  Q 256.69 153.72 256.70 156.91
  A 3.72 3.71 67.8 0 1 255.59 159.56
  Q 255.18 159.96 254.69 160.27
  Q 253.39 161.10 253.40 159.56
  Q 253.42 153.68 253.59 148.13
  Q 253.91 137.80 262.44 132.72
  Q 269.09 128.75 274.94 125.62
  Q 275.64 125.25 275.65 126.04
  Q 275.66 136.26 275.60 146.44
  Q 275.53 158.36 265.48 163.72
  Q 261.40 165.90 257.45 168.04
  A 1.41 1.40 75.6 0 0 256.73 169.27
  L 256.74 179.10
  A 3.49 3.40 55.5 0 1 256.54 180.26
  Q 255.94 181.98 254.62 182.69
  Q 253.36 183.37 253.37 181.95
  L 253.48 168.02
  A 3.35 3.34 76.1 0 1 255.24 165.09
  Q 259.64 162.71 264.40 160.11
  Q 269.46 157.35 271.41 152.19
  Q 272.45 149.45 272.38 142.84
  Q 272.33 138.15 272.41 133.38
  Z"
/>
<path fill="#000000" d="
  M 201.84 148.65
  Q 201.89 153.22 201.99 158.01
  C 202.18 166.53 208.01 169.81 214.59 173.35
  Q 216.04 174.13 216.40 175.73
  L 216.68 176.95
  Q 217.07 178.65 215.54 177.82
  Q 211.35 175.55 206.02 172.20
  C 198.05 167.20 196.17 161.20 196.53 151.96
  Q 196.73 146.79 196.50 141.58
  A 0.35 0.34 -76.7 0 1 197.01 141.26
  Q 206.29 146.55 215.29 151.86
  C 222.46 156.09 225.51 162.48 224.93 170.53
  Q 224.65 174.45 224.66 178.29
  A 1.60 1.60 0.0 0 0 225.47 179.68
  L 233.57 184.31
  Q 235.02 185.15 235.69 186.68
  Q 235.97 187.34 235.89 188.01
  Q 235.69 189.49 234.40 188.74
  L 222.52 181.88
  A 3.41 3.41 0.0 0 1 220.83 178.80
  Q 221.05 173.35 221.13 167.97
  Q 221.26 159.60 213.98 155.08
  Q 208.65 151.77 202.31 148.37
  A 0.32 0.31 13.5 0 0 201.84 148.65
  Z"
/>
<path fill="#000000" d="
  M 297.26 148.30
  Q 291.39 151.74 285.99 154.86
  C 280.43 158.06 278.07 163.65 278.49 170.19
  Q 278.79 174.74 278.75 179.05
  A 3.41 3.40 -14.9 0 1 277.05 181.98
  L 265.05 188.89
  Q 263.89 189.56 263.98 188.22
  L 264.06 187.02
  A 2.92 2.90 77.2 0 1 265.51 184.70
  L 274.56 179.52
  Q 275.01 179.27 275.02 178.75
  Q 275.06 174.50 274.78 170.10
  C 274.21 161.03 278.64 155.05 286.30 150.73
  Q 294.22 146.26 302.21 141.62
  Q 303.29 140.99 303.27 142.24
  Q 303.15 147.82 303.28 153.83
  C 303.45 162.25 300.72 167.79 293.75 172.15
  Q 289.30 174.94 284.48 177.59
  Q 283.09 178.35 283.31 176.79
  L 283.45 175.81
  Q 283.70 174.09 285.25 173.29
  C 291.84 169.90 297.46 166.52 297.91 158.16
  Q 298.15 153.56 297.94 148.67
  Q 297.91 147.92 297.26 148.30
  Z"
/>
<path fill="#000000" d="
  M 180.31 186.42
  A 0.58 0.57 44.3 0 0 180.33 187.41
  Q 185.35 190.29 190.71 193.45
  C 196.77 197.01 202.81 196.30 208.52 192.42
  Q 211.74 190.24 215.47 188.06
  A 3.81 3.81 0.0 0 1 219.31 188.06
  L 231.02 194.90
  Q 232.37 195.68 230.98 196.39
  L 230.33 196.72
  Q 228.77 197.52 227.27 196.64
  L 218.55 191.56
  A 1.72 1.72 0.0 0 0 216.76 191.61
  C 209.96 196.01 203.72 201.24 194.92 198.91
  Q 191.97 198.12 187.94 195.81
  Q 179.71 191.08 171.49 186.30
  A 0.62 0.62 0.0 0 1 171.51 185.22
  Q 176.90 182.36 182.97 178.64
  C 193.68 172.08 202.41 178.04 211.58 183.61
  Q 212.93 184.43 211.55 185.21
  L 210.85 185.60
  Q 209.75 186.22 208.61 185.66
  Q 205.55 184.13 202.55 182.35
  C 193.99 177.27 187.34 182.18 180.31 186.42
  Z"
/>
<path fill="#000000" d="
  M 319.68 186.54
  Q 315.00 183.48 310.50 181.31
  C 306.45 179.34 300.72 179.94 296.65 182.53
  Q 294.15 184.12 291.37 185.49
  Q 290.21 186.06 289.02 185.53
  L 288.04 185.08
  Q 286.76 184.50 287.96 183.77
  C 294.55 179.71 301.25 175.05 309.38 175.83
  Q 312.58 176.14 318.92 179.93
  Q 323.34 182.58 328.26 185.39
  A 0.47 0.47 0.0 0 1 328.25 186.21
  Q 320.64 190.43 312.02 195.60
  Q 308.00 198.00 304.85 198.78
  C 295.97 200.97 290.02 196.13 283.05 191.59
  A 1.91 1.89 -43.3 0 0 281.07 191.54
  L 272.47 196.56
  Q 271.01 197.41 269.52 196.62
  L 268.90 196.30
  Q 267.55 195.59 268.87 194.82
  L 280.48 188.03
  A 3.62 3.60 -44.9 0 1 284.13 188.03
  Q 287.93 190.27 291.40 192.60
  C 297.33 196.59 303.55 196.92 309.67 193.14
  Q 314.69 190.04 319.64 187.39
  Q 320.38 187.00 319.68 186.54
  Z"
/>
<path fill="#000000" d="
  M 180.66 217.31
  C 186.32 220.87 192.80 225.14 199.48 222.51
  Q 203.37 220.98 207.60 218.18
  A 3.20 3.15 28.5 0 1 209.41 217.66
  Q 210.77 217.70 211.87 218.50
  Q 213.07 219.37 211.74 220.01
  C 202.90 224.31 195.13 231.64 184.26 225.54
  Q 178.54 222.33 171.63 218.14
  A 0.54 0.54 0.0 0 1 171.63 217.21
  Q 180.37 212.08 189.65 206.75
  Q 196.91 202.58 204.35 204.85
  C 208.67 206.18 212.55 209.35 216.52 211.69
  A 2.38 2.37 45.1 0 0 218.94 211.70
  L 227.06 206.96
  A 3.22 3.07 23.5 0 1 228.12 206.57
  Q 229.89 206.25 231.10 207.08
  Q 232.35 207.93 231.04 208.69
  L 219.06 215.59
  A 3.22 3.21 -45.1 0 1 215.88 215.60
  C 207.91 211.11 201.19 204.16 191.30 209.79
  Q 186.06 212.78 180.68 215.94
  Q 179.55 216.61 180.66 217.31
  Z"
/>
<path fill="#000000" d="
  M 319.38 217.21
  Q 320.43 216.61 319.38 216.01
  Q 313.92 212.93 308.97 209.98
  C 298.98 204.03 291.92 210.69 283.92 215.58
  A 2.97 2.96 44.1 0 1 280.89 215.62
  L 268.60 208.57
  Q 267.16 207.74 268.68 207.09
  L 269.57 206.71
  Q 271.03 206.08 272.40 206.87
  L 281.42 212.08
  A 1.17 1.16 -45.2 0 0 282.60 212.07
  Q 286.12 209.98 289.27 207.88
  C 295.71 203.61 302.61 202.67 309.51 206.54
  Q 318.81 211.75 327.85 217.13
  Q 328.84 217.72 327.84 218.29
  Q 322.04 221.65 316.19 225.06
  Q 310.44 228.42 305.32 227.70
  C 298.94 226.80 293.53 222.83 288.03 219.87
  Q 286.59 219.10 288.03 218.32
  L 288.85 217.88
  A 2.79 2.79 0.0 0 1 291.64 217.97
  C 298.54 222.27 304.46 225.80 312.50 221.16
  Q 316.07 219.10 319.38 217.21
  Z"
/>
<path fill="#000000" d="
  M 297.24 255.20
  Q 297.90 255.59 297.91 254.81
  C 297.96 250.02 298.56 244.75 296.76 240.24
  C 294.49 234.55 289.51 232.85 284.72 229.77
  A 3.02 3.02 0.0 0 1 283.33 227.34
  L 283.30 226.47
  Q 283.25 225.00 284.49 225.79
  C 293.03 231.24 302.99 234.81 303.13 247.00
  Q 303.22 254.11 303.14 261.85
  Q 303.14 262.45 302.62 262.15
  Q 293.28 256.79 283.96 251.32
  Q 278.21 247.94 275.81 241.58
  C 273.91 236.52 274.97 230.50 274.98 225.15
  A 1.70 1.70 0.0 0 0 274.13 223.68
  L 265.50 218.78
  A 2.99 2.96 14.1 0 1 264.00 216.29
  L 263.97 215.42
  Q 263.93 213.95 265.20 214.69
  L 277.17 221.64
  A 3.13 3.13 0.0 0 1 278.73 224.33
  Q 278.76 228.81 278.47 232.94
  C 278.03 239.42 280.15 245.16 285.60 248.37
  Q 291.49 251.84 297.24 255.20
  Z"
/>
<path fill="#000000" d="
  M 202.46 254.87
  Q 203.11 254.78 203.70 254.44
  Q 208.83 251.50 214.36 248.16
  C 219.46 245.09 221.41 239.91 221.10 233.86
  Q 220.86 229.24 220.82 224.70
  A 3.63 3.62 74.9 0 1 222.63 221.54
  L 234.55 214.64
  Q 235.88 213.88 235.81 215.41
  L 235.77 216.30
  Q 235.69 217.97 234.23 218.81
  L 225.75 223.64
  A 2.39 2.38 -16.4 0 0 224.55 225.84
  C 224.77 229.62 225.28 234.16 224.82 237.47
  C 223.47 247.24 217.21 250.90 208.31 255.76
  Q 202.76 258.79 197.40 262.10
  A 0.56 0.56 0.0 0 1 196.55 261.61
  Q 196.64 256.48 196.49 251.33
  C 196.22 242.20 197.92 236.37 206.14 231.19
  Q 210.63 228.36 215.45 225.73
  Q 216.96 224.91 216.60 226.59
  Q 216.58 226.67 216.39 227.57
  Q 216.00 229.42 214.33 230.31
  C 207.59 233.93 201.91 237.25 201.92 245.99
  Q 201.93 250.28 201.80 254.27
  A 0.59 0.58 87.1 0 0 202.46 254.87
  Z"
/>
<path fill="#000000" d="
  M 228.37 269.86
  C 234.04 266.87 239.88 264.18 242.27 257.57
  C 243.56 254.00 242.83 249.87 243.11 246.05
  Q 243.20 244.83 244.03 243.92
  Q 244.47 243.44 245.07 243.12
  Q 246.50 242.35 246.49 243.97
  C 246.46 252.81 247.55 264.44 238.62 269.96
  Q 232.54 273.73 225.18 277.79
  A 0.82 0.82 0.0 0 1 223.96 277.05
  Q 224.11 268.30 223.95 259.30
  C 223.79 249.74 226.90 243.41 235.51 239.03
  Q 238.78 237.36 241.99 235.57
  A 2.07 2.06 75.4 0 0 243.04 233.77
  L 242.99 223.91
  A 3.29 3.26 74.0 0 1 244.51 221.14
  L 245.00 220.83
  Q 246.46 219.91 246.46 221.64
  Q 246.43 228.23 246.47 234.84
  Q 246.48 237.57 244.09 238.74
  Q 239.14 241.16 234.50 243.93
  Q 227.99 247.81 227.61 255.56
  Q 227.29 261.83 227.55 269.38
  A 0.57 0.56 75.0 0 0 228.37 269.86
  Z"
/>
<path fill="#000000" d="
  M 272.27 269.80
  Q 272.55 258.62 272.06 254.44
  Q 271.23 247.48 264.97 243.74
  Q 260.41 241.01 255.45 238.63
  A 3.57 3.57 0.0 0 1 253.42 235.41
  L 253.43 221.69
  Q 253.43 220.31 254.66 220.92
  Q 255.27 221.23 255.74 221.75
  Q 256.75 222.86 256.75 224.35
  L 256.75 234.50
  A 0.98 0.97 -76.6 0 0 257.28 235.37
  Q 260.75 237.18 264.07 238.98
  Q 268.48 241.37 270.39 243.32
  Q 275.46 248.48 275.55 256.66
  Q 275.67 266.73 275.60 277.46
  A 0.52 0.51 14.2 0 1 274.84 277.91
  Q 267.44 273.84 261.21 269.97
  C 255.87 266.65 253.91 261.38 253.56 254.86
  Q 253.26 249.18 253.45 243.86
  Q 253.51 242.22 254.78 243.27
  L 255.53 243.89
  Q 256.81 244.96 256.74 246.62
  C 256.43 253.63 256.63 260.82 262.97 264.92
  Q 266.72 267.35 271.66 270.15
  Q 272.26 270.49 272.27 269.80
  Z"
/>
<path fill="#000000" d="
  M 221.62 300.63
  Q 219.82 300.58 217.84 301.22
  A 0.46 0.46 0.0 0 1 217.27 300.60
  Q 217.61 299.84 218.46 299.88
  Q 222.99 300.09 227.56 299.89
  Q 228.33 299.85 228.59 300.55
  Q 229.00 301.64 227.94 301.16
  Q 226.04 300.30 224.32 300.77
  Q 223.76 300.92 223.74 301.50
  Q 223.48 307.43 223.99 312.56
  Q 224.04 313.07 223.53 313.06
  L 222.32 313.01
  Q 222.15 313.01 222.15 312.83
  L 222.35 301.39
  Q 222.36 300.65 221.62 300.63
  Z"
/>
<path fill="#000000" d="
  M 254.04 305.65
  Q 254.44 302.83 253.75 300.52
  Q 253.57 299.93 254.19 299.96
  L 255.75 300.01
  Q 256.39 300.03 255.92 300.47
  Q 255.39 300.96 255.38 301.64
  Q 255.35 306.22 255.37 310.93
  Q 255.37 311.53 255.69 312.03
  Q 255.77 312.15 255.84 312.27
  Q 256.23 312.89 255.50 312.93
  L 254.00 313.01
  Q 253.51 313.04 253.66 312.58
  Q 254.46 310.16 254.04 307.39
  Q 253.95 306.77 253.33 306.77
  L 247.27 306.75
  Q 246.68 306.75 246.60 307.33
  Q 246.18 310.14 247.03 312.46
  Q 247.17 312.85 246.75 312.89
  L 245.24 313.00
  Q 244.29 313.07 244.85 312.30
  C 245.08 311.98 245.17 311.61 245.18 311.23
  Q 245.40 305.71 244.87 300.42
  Q 244.80 299.73 245.48 299.80
  L 246.31 299.87
  A 0.68 0.67 10.9 0 1 246.90 300.73
  Q 246.20 303.17 246.62 305.62
  Q 246.71 306.15 247.24 306.16
  L 253.36 306.23
  Q 253.95 306.24 254.04 305.65
  Z"
/>
<path fill="#000000" d="
  M 276.47 306.24
  Q 278.07 306.43 279.36 305.89
  Q 280.12 305.57 279.94 306.37
  Q 279.90 306.53 279.92 306.68
  Q 280.03 307.58 279.24 307.15
  Q 277.92 306.43 276.27 306.83
  A 0.59 0.57 83.9 0 0 275.82 307.40
  L 275.80 311.49
  Q 275.80 312.04 276.34 312.15
  Q 279.41 312.77 281.20 311.08
  Q 281.74 310.56 281.48 311.26
  L 281.06 312.38
  Q 280.88 312.85 280.38 312.85
  L 274.20 312.86
  A 0.28 0.27 -67.5 0 1 274.01 312.39
  L 274.23 312.16
  Q 274.52 311.86 274.52 311.44
  Q 274.53 306.89 274.55 302.01
  C 274.55 301.45 274.50 301.23 274.17 300.80
  Q 273.63 300.07 274.54 300.04
  L 280.22 299.89
  Q 280.73 299.88 280.80 300.38
  Q 280.82 300.55 280.85 300.71
  A 0.30 0.30 0.0 0 1 280.43 301.03
  Q 278.77 300.26 276.51 300.60
  Q 275.81 300.70 275.81 301.41
  L 275.83 305.53
  A 0.73 0.71 3.6 0 0 276.47 306.24
  Z"
/>
<rect fill="#000000" x="305.35" y="306.24" width="55.42" height="1.00" rx="0.48"/>
<rect fill="#000000" x="-27.96" y="-0.71" transform="translate(166.65,307.68) rotate(-0.1)" width="55.92" height="1.42" rx="0.70"/>
<path fill="#000000" d="
  M 124.29 322.08
  C 115.28 319.49 109.40 329.25 116.38 335.53
  Q 122.76 341.27 129.06 347.19
  C 133.08 350.96 133.55 357.24 130.94 361.98
  C 126.86 369.40 117.41 369.14 110.64 366.04
  C 106.83 364.29 108.08 358.60 108.59 355.45
  A 0.46 0.45 17.1 0 1 109.24 355.11
  Q 109.83 355.41 109.88 356.01
  Q 110.84 366.93 120.96 365.51
  C 128.91 364.39 130.72 355.20 125.01 350.06
  Q 119.24 344.88 113.60 339.55
  Q 107.12 333.45 110.43 325.96
  C 114.04 317.76 122.00 319.22 129.08 319.94
  Q 129.72 320.00 129.71 320.65
  L 129.67 327.28
  Q 129.67 327.75 129.34 328.07
  Q 129.08 328.32 128.83 328.13
  Q 128.78 328.10 128.77 328.04
  Q 128.19 323.20 124.29 322.08
  Z"
/>
<path fill="#000000" d="
  M 376.47 346.68
  L 376.47 365.31
  Q 376.47 366.01 377.17 366.01
  Q 381.54 365.97 385.81 366.00
  Q 394.83 366.06 397.64 357.39
  Q 397.70 357.22 397.86 357.28
  L 398.12 357.37
  A 0.28 0.28 0.0 0 1 398.29 357.72
  L 394.86 367.42
  Q 394.64 368.02 394.01 368.02
  L 367.29 367.96
  A 0.12 0.11 -0.0 0 1 367.17 367.85
  L 367.18 367.55
  Q 367.18 367.21 367.52 367.21
  Q 372.12 367.09 372.11 362.58
  Q 372.09 346.14 372.14 326.98
  Q 372.15 322.13 367.28 321.81
  A 0.22 0.22 0.0 0 1 367.11 321.49
  L 367.24 321.24
  Q 367.24 321.23 367.25 321.23
  Q 378.96 321.50 388.47 321.20
  Q 391.19 321.11 393.92 320.37
  Q 394.48 320.22 394.48 320.80
  L 394.46 328.24
  Q 394.46 328.35 394.35 328.38
  L 394.10 328.46
  Q 393.69 328.58 393.75 328.16
  C 394.15 325.53 392.32 323.36 389.66 323.38
  Q 383.57 323.44 377.11 323.39
  Q 376.48 323.39 376.48 324.02
  L 376.48 343.45
  Q 376.48 344.02 377.04 344.02
  Q 382.29 343.99 387.13 344.00
  Q 390.79 344.01 391.02 340.08
  Q 391.03 339.83 391.28 339.87
  L 391.57 339.91
  Q 391.64 339.93 391.63 340.00
  Q 391.47 345.15 391.69 350.02
  Q 391.70 350.16 391.55 350.14
  L 391.20 350.09
  Q 391.00 350.06 391.00 349.86
  C 390.99 347.62 389.56 345.92 387.27 345.96
  Q 381.93 346.05 377.19 345.97
  Q 376.47 345.96 376.47 346.68
  Z"
/>
<path fill="#000000" d="
  M 229.34 361.26
  Q 237.02 361.22 245.98 361.29
  C 250.71 361.32 253.37 359.02 254.69 354.45
  Q 254.72 354.33 254.84 354.36
  L 255.17 354.45
  Q 255.39 354.51 255.34 354.72
  L 253.69 362.24
  Q 253.53 363.00 252.75 363.00
  L 223.84 363.00
  A 0.44 0.44 0.0 0 1 223.47 362.33
  L 247.11 325.13
  Q 247.51 324.51 246.76 324.50
  Q 237.50 324.50 228.31 324.53
  C 226.13 324.54 224.98 326.29 224.90 328.29
  Q 224.88 328.68 224.49 328.68
  L 224.19 328.68
  Q 223.99 328.68 223.99 328.48
  L 224.08 322.32
  Q 224.08 321.75 224.65 321.85
  C 226.81 322.22 228.98 322.73 231.18 322.74
  Q 240.29 322.79 249.19 322.72
  C 250.44 322.71 251.62 322.31 252.85 322.16
  A 0.36 0.36 0.0 0 1 253.20 322.71
  L 229.07 360.77
  A 0.32 0.32 0.0 0 0 229.34 361.26
  Z"
/>
<path fill="#000000" d="
  M 151.96 344.98
  L 152.03 360.48
  Q 152.04 361.07 152.62 361.08
  Q 157.57 361.19 162.07 360.96
  Q 167.34 360.70 169.67 354.11
  A 0.25 0.24 28.5 0 1 170.06 354.00
  L 170.40 354.26
  A 0.52 0.52 0.0 0 1 170.57 354.85
  L 167.75 362.59
  A 0.62 0.61 -79.8 0 1 167.17 363.00
  L 144.34 363.16
  Q 143.99 363.16 143.97 362.81
  L 143.95 362.53
  Q 143.94 362.47 144.00 362.46
  Q 146.18 362.25 147.26 360.92
  Q 147.98 360.03 147.98 358.84
  Q 148.02 342.45 147.99 327.51
  Q 147.98 323.63 144.01 323.76
  Q 143.61 323.77 143.80 323.42
  L 144.05 322.94
  A 0.48 0.46 13.3 0 1 144.47 322.69
  Q 152.49 322.65 160.79 322.72
  C 162.87 322.74 164.74 322.29 166.75 321.95
  A 0.56 0.56 0.0 0 1 167.40 322.50
  L 167.43 328.37
  A 0.27 0.27 0.0 0 1 167.16 328.64
  L 166.88 328.64
  Q 166.46 328.65 166.47 328.23
  C 166.47 326.40 165.45 324.68 163.43 324.73
  Q 157.96 324.86 152.89 324.72
  A 0.94 0.94 0.0 0 0 151.92 325.67
  L 152.04 341.26
  A 0.88 0.87 -0.3 0 0 152.93 342.13
  Q 156.71 342.05 160.72 342.22
  Q 164.26 342.36 164.36 338.54
  A 0.12 0.12 0.0 0 1 164.48 338.42
  L 164.78 338.43
  Q 165.01 338.44 165.01 338.67
  L 165.09 347.59
  Q 165.10 348.40 164.63 347.73
  Q 164.14 347.04 163.95 346.21
  A 2.68 2.68 0.0 0 0 161.33 344.15
  L 152.77 344.16
  Q 151.95 344.16 151.96 344.98
  Z"
/>
<path fill="#000000" d="
  M 188.15 349.68
  Q 186.51 354.21 184.67 358.89
  C 184.00 360.59 184.83 362.02 186.63 362.40
  Q 186.74 362.42 186.73 362.54
  Q 186.71 362.67 186.67 362.80
  Q 186.62 362.95 186.47 362.95
  Q 181.46 363.17 176.50 362.89
  Q 176.32 362.88 176.24 362.71
  Q 176.17 362.55 176.22 362.42
  Q 176.27 362.27 176.42 362.26
  Q 179.88 361.95 181.37 358.42
  Q 189.35 339.57 196.52 322.22
  A 0.30 0.30 0.0 0 1 197.08 322.22
  Q 204.76 340.53 212.36 358.70
  Q 213.75 362.03 217.41 362.31
  Q 217.61 362.33 217.61 362.53
  L 217.61 362.83
  Q 217.61 362.89 217.55 362.89
  Q 211.40 363.14 205.71 362.91
  Q 205.53 362.90 205.38 362.78
  Q 204.89 362.37 205.52 362.26
  C 207.79 361.84 208.15 360.22 207.41 358.39
  Q 205.75 354.23 204.43 350.39
  A 2.00 2.00 0.0 0 0 202.54 349.05
  L 189.03 349.07
  A 0.94 0.94 0.0 0 0 188.15 349.68
  Z
  M 189.44 346.61
  A 0.42 0.42 0.0 0 0 189.83 347.18
  L 202.55 347.30
  A 0.42 0.42 0.0 0 0 202.94 346.73
  L 196.73 330.06
  A 0.42 0.42 0.0 0 0 195.94 330.05
  L 189.44 346.61
  Z"
/>
<path fill="#000000" d="
  M 305.3171 344.8987
  A 18.60 18.60 0.0 0 1 286.7821 363.5635
  L 283.1422 363.5762
  A 18.60 18.60 0.0 0 1 264.4774 345.0413
  L 264.4629 340.9013
  A 18.60 18.60 0.0 0 1 282.9979 322.2365
  L 286.6378 322.2238
  A 18.60 18.60 0.0 0 1 305.3026 340.7587
  L 305.3171 344.8987
  Z
  M 284.9778 362.3399
  A 19.43 16.45 89.8 0 0 301.3599 342.8526
  A 19.43 16.45 89.8 0 0 284.8422 323.4801
  A 19.43 16.45 89.8 0 0 268.4601 342.9674
  A 19.43 16.45 89.8 0 0 284.9778 362.3399
  Z"
/>
<path fill="#000000" d="
  M 349.80 354.57
  Q 349.73 341.49 349.79 327.28
  C 349.80 324.87 347.98 323.07 345.51 323.42
  Q 345.26 323.45 345.30 323.20
  L 345.35 322.89
  Q 345.37 322.78 345.48 322.78
  L 356.46 322.79
  Q 356.75 322.79 356.70 323.07
  L 356.64 323.35
  Q 356.63 323.41 356.57 323.41
  Q 352.52 323.33 352.44 327.06
  Q 352.07 345.27 352.62 363.38
  Q 352.64 364.08 352.16 363.57
  L 321.80 331.17
  Q 321.05 330.37 321.04 331.47
  Q 321.00 343.37 321.02 355.31
  C 321.03 358.67 320.29 362.56 325.48 362.23
  Q 325.50 362.23 325.50 362.25
  L 325.52 362.50
  Q 325.53 362.74 325.30 362.76
  Q 319.72 363.28 314.27 362.79
  A 0.27 0.27 0.0 0 1 314.03 362.48
  L 314.06 362.23
  Q 314.07 362.17 314.13 362.18
  C 316.38 362.49 318.34 361.44 318.38 359.07
  Q 318.66 339.31 318.16 322.46
  Q 318.14 321.57 318.74 322.22
  L 349.23 354.80
  A 0.33 0.33 0.0 0 0 349.80 354.57
  Z"
/>
<path fill="#000000" d="
  M 196.77 377.29
  C 196.10 378.96 195.94 380.86 196.58 382.54
  Q 196.84 383.22 196.50 383.84
  C 195.85 385.02 196.28 386.99 196.79 388.14
  Q 197.05 388.71 196.45 388.91
  Q 195.77 389.14 195.00 389.07
  Q 194.52 389.02 194.58 388.54
  Q 195.27 382.69 194.64 377.27
  Q 194.57 376.66 195.18 376.70
  L 196.46 376.79
  A 0.37 0.37 0.0 0 1 196.77 377.29
  Z"
/>
<path fill="#000000" d="
  M 202.91 388.39
  Q 203.27 386.43 203.06 384.60
  C 202.76 381.99 203.52 379.89 202.76 377.25
  A 0.44 0.44 0.0 0 1 203.29 376.70
  Q 203.66 376.80 204.04 376.75
  Q 204.98 376.64 204.83 377.56
  Q 203.97 383.05 204.93 388.44
  Q 205.04 389.04 204.43 389.09
  L 203.60 389.16
  Q 202.76 389.23 202.91 388.39
  Z"
/>
<path fill="#000000" d="
  M 229.56 388.48
  C 233.56 387.20 233.75 382.06 231.84 379.03
  C 231.15 377.94 230.19 377.80 229.20 377.17
  Q 228.53 376.75 229.32 376.82
  Q 232.17 377.06 233.40 379.31
  Q 235.89 383.86 232.52 387.65
  Q 231.31 389.01 229.60 388.84
  Q 228.70 388.75 229.56 388.48
  Z"
/>
<path fill="#000000" d="
  M 253.28 377.38
  Q 251.38 376.85 249.75 377.75
  Q 249.17 378.07 249.29 377.42
  Q 249.31 377.28 249.39 377.17
  Q 249.49 377.02 249.67 377.02
  L 259.18 376.81
  Q 259.44 376.81 259.40 377.07
  L 259.37 377.35
  Q 259.34 377.52 259.17 377.51
  L 255.65 377.29
  Q 255.09 377.25 255.06 377.82
  Q 254.70 383.30 255.24 388.49
  Q 255.29 389.00 254.77 389.00
  L 253.81 388.99
  Q 252.86 388.99 253.50 388.28
  Q 253.78 387.96 253.78 387.51
  Q 253.75 382.72 253.80 378.07
  A 0.72 0.72 0.0 0 0 253.28 377.38
  Z"
/>
<path fill="#000000" d="
  M 277.27 378.21
  L 277.29 387.39
  Q 277.29 387.99 277.87 388.13
  Q 280.61 388.80 282.22 387.29
  Q 282.86 386.69 282.54 387.50
  L 282.14 388.54
  Q 281.91 389.13 281.30 388.99
  Q 278.75 388.42 276.39 389.03
  Q 275.70 389.20 275.78 388.50
  Q 276.32 383.58 276.01 378.10
  Q 275.98 377.70 275.75 377.37
  Q 275.66 377.24 275.61 377.09
  Q 275.50 376.76 275.85 376.81
  Q 278.51 377.20 281.25 376.68
  A 0.42 0.42 0.0 0 1 281.74 377.06
  Q 281.75 377.24 281.79 377.42
  Q 281.97 378.36 281.17 377.85
  Q 279.74 376.93 277.83 377.48
  Q 277.27 377.63 277.27 378.21
  Z"
/>
<path fill="#000000" d="
  M 301.37 388.29
  Q 304.63 388.71 306.20 387.08
  Q 306.63 386.63 306.40 387.21
  L 305.90 388.51
  Q 305.70 389.02 305.16 388.93
  Q 302.81 388.55 300.06 389.05
  Q 299.75 389.11 299.53 388.89
  Q 299.12 388.50 299.56 388.13
  Q 299.88 387.86 299.87 387.43
  Q 299.80 382.70 299.86 378.27
  Q 299.87 377.70 299.43 377.35
  Q 299.30 377.24 299.14 377.15
  Q 298.54 376.80 299.24 376.84
  Q 300.24 376.89 301.21 376.89
  Q 302.19 376.89 301.37 377.43
  Q 301.28 377.49 301.21 377.58
  Q 301.03 377.83 301.02 378.15
  Q 300.97 382.99 301.02 387.89
  A 0.42 0.41 -86.7 0 0 301.37 388.29
  Z"
/>
<path fill="#000000" d="
  M 226.36 377.46
  C 222.51 379.70 222.02 386.40 226.48 388.33
  Q 228.14 389.04 226.34 388.85
  Q 223.57 388.54 222.53 385.82
  Q 220.73 381.14 224.29 377.85
  Q 225.13 377.08 226.26 377.08
  Q 227.01 377.08 226.36 377.46
  Z"
/>
<path fill="#000000" d="
  M 280.90 382.92
  Q 281.00 383.01 280.99 383.15
  Q 280.96 383.52 280.60 383.44
  Q 279.48 383.20 278.13 383.10
  Q 278.33 382.84 278.63 382.96
  Q 278.96 383.10 279.30 383.00
  Q 280.00 382.78 280.71 382.50
  Q 281.03 382.36 280.96 382.71
  Q 280.95 382.76 280.91 382.80
  Q 280.84 382.86 280.90 382.92
  Z"
/>
<ellipse fill="#000000" cx="0.00" cy="0.00" transform="translate(199.54,383.17) rotate(-6.8)" rx="1.40" ry="0.37"/>
</svg>
