<?xml version="1.0" encoding="UTF-8" standalone="no"?>
<svg xmlns="http://www.w3.org/2000/svg" version="1.2" baseProfile="tiny" viewBox="0.00 0.00 1448.00 1448.00">
<path fill="#ffffff" d="
  M 797.85 364.28
  L 797.93 378.71
  A 1.08 1.08 0.0 0 1 796.09 379.48
  L 786.82 370.30
  A 1.08 1.08 0.0 0 1 787.04 368.60
  L 796.23 363.35
  A 1.08 1.08 0.0 0 1 797.85 364.28
  Z"
/>
<path fill="#ffffff" d="
  M 660.51 371.29
  L 651.31 380.68
  A 1.39 1.39 0.0 0 1 648.92 379.68
  L 649.18 365.76
  A 1.39 1.39 0.0 0 1 651.20 364.54
  L 660.15 369.08
  A 1.39 1.39 0.0 0 1 660.51 371.29
  Z"
/>
<path fill="#ffffff" d="
  M 787.75 386.17
  Q 773.89 392.54 760.30 401.93
  C 753.61 406.55 749.78 412.74 746.06 419.79
  Q 745.71 420.45 745.14 419.97
  Q 741.25 416.70 739.08 413.32
  C 736.83 409.83 740.20 404.01 742.47 400.91
  Q 750.24 390.27 761.00 383.71
  Q 771.76 377.14 782.38 370.96
  A 1.14 1.13 -39.2 0 1 783.70 371.09
  Q 790.81 377.40 796.87 383.91
  C 797.93 385.05 798.30 386.55 798.30 388.07
  Q 798.29 400.59 798.27 413.67
  Q 798.27 415.89 796.78 417.55
  Q 793.79 420.86 790.46 423.94
  Q 788.81 425.46 788.79 423.22
  L 788.37 386.56
  A 0.44 0.44 0.0 0 0 787.75 386.17
  Z"
/>
<path fill="#ffffff" d="
  M 659.52 386.35
  Q 659.15 387.13 659.09 388.16
  C 658.45 399.19 658.61 410.42 658.19 421.09
  Q 658.10 423.63 656.09 422.06
  Q 653.49 420.02 650.81 417.26
  Q 648.87 415.28 648.95 412.51
  Q 649.26 400.62 649.26 387.94
  C 649.26 385.49 650.15 383.49 652.02 381.96
  C 655.86 378.83 659.77 375.71 662.89 371.80
  A 1.39 1.38 33.5 0 1 664.62 371.45
  Q 673.43 376.17 683.16 381.82
  C 694.79 388.58 704.99 397.61 709.43 410.46
  Q 709.76 411.42 709.71 412.44
  A 1.25 1.25 0.0 0 1 709.40 413.21
  L 702.60 421.26
  A 0.62 0.62 0.0 0 1 701.56 421.11
  Q 696.12 408.84 685.41 401.07
  Q 673.83 392.66 659.75 386.27
  A 0.18 0.17 24.3 0 0 659.52 386.35
  Z"
/>
<path fill="#ffffff" d="
  M 861.71 429.18
  L 851.66 435.22
  A 1.04 1.04 0.0 0 1 850.28 434.94
  L 845.29 428.06
  A 0.55 0.54 -35.7 0 1 845.42 427.30
  Q 849.68 424.35 854.23 421.70
  Q 865.88 414.92 875.97 409.35
  A 1.19 1.18 56.6 0 1 877.47 409.66
  Q 877.84 410.12 877.89 410.77
  Q 878.55 420.00 878.08 425.79
  Q 877.94 427.54 876.55 428.88
  Q 870.31 434.85 863.99 440.89
  A 0.45 0.45 0.0 0 1 863.25 440.67
  Q 861.95 435.34 862.58 429.74
  A 0.58 0.57 -12.0 0 0 861.71 429.18
  Z"
/>
<path fill="#ffffff" d="
  M 584.27 429.10
  A 0.63 0.61 -24.9 0 0 584.06 429.64
  Q 584.52 434.11 583.42 439.10
  A 0.43 0.43 0.0 0 1 582.79 439.38
  Q 580.92 438.34 579.33 436.81
  Q 574.96 432.60 570.49 428.18
  A 4.28 4.26 -67.4 0 1 569.23 425.10
  Q 569.33 418.35 569.58 411.19
  Q 569.61 410.45 569.99 409.81
  A 0.66 0.66 0.0 0 1 570.89 409.57
  L 601.91 427.27
  A 1.55 1.55 0.0 0 1 602.22 429.74
  L 597.54 434.24
  Q 596.79 434.95 595.85 434.53
  Q 589.72 431.78 585.09 428.97
  Q 584.69 428.73 584.27 429.10
  Z"
/>
<path fill="#ffffff" d="
  M 707.80 462.51
  Q 704.16 460.24 704.18 456.11
  Q 704.20 445.49 704.18 436.08
  Q 704.17 431.57 703.20 426.78
  Q 702.93 425.47 702.96 424.03
  A 1.37 1.36 -24.6 0 1 703.28 423.18
  Q 706.64 419.08 710.45 415.65
  Q 711.14 415.04 711.54 415.87
  Q 712.04 416.91 712.20 418.03
  C 714.22 432.14 713.95 447.29 713.61 461.88
  Q 713.51 466.08 709.95 463.85
  Q 707.88 462.56 707.80 462.51
  Z"
/>
<path fill="#ffffff" d="
  M 735.82 417.57
  A 1.08 1.07 8.3 0 1 736.93 416.75
  Q 738.02 416.82 738.79 417.69
  Q 741.42 420.66 744.32 423.03
  A 1.45 1.45 0.0 0 1 744.81 424.50
  Q 743.71 428.79 743.53 432.84
  Q 743.08 443.12 743.33 454.28
  Q 743.44 458.73 740.06 461.63
  Q 738.94 462.59 737.66 463.32
  Q 734.03 465.37 733.90 461.20
  Q 733.33 443.24 734.40 427.04
  Q 734.72 422.17 735.82 417.57
  Z"
/>
<path fill="#ffffff" d="
  M 779.23 452.44
  C 783.82 446.31 786.56 438.94 787.90 431.39
  Q 788.24 429.49 789.67 428.01
  Q 793.17 424.40 797.47 420.65
  Q 797.73 420.42 798.04 420.55
  A 0.63 0.63 0.0 0 1 798.44 421.15
  Q 798.12 431.72 795.48 442.43
  Q 793.08 452.14 786.82 459.84
  A 0.90 0.89 -51.7 0 1 785.58 459.99
  Q 782.02 457.23 779.27 453.96
  A 1.23 1.22 -46.7 0 1 779.23 452.44
  Z"
/>
<path fill="#ffffff" d="
  M 661.25 440.02
  C 662.65 445.14 665.41 449.26 668.82 453.52
  A 0.95 0.94 -39.1 0 1 668.68 454.83
  L 661.99 460.44
  Q 661.49 460.86 661.08 460.36
  C 651.96 449.41 649.61 437.26 648.78 422.84
  Q 648.61 419.83 651.02 421.63
  L 655.70 425.09
  A 7.91 7.89 12.2 0 1 658.72 429.76
  Q 659.85 434.92 661.25 440.02
  Z"
/>
<path fill="#ffffff" d="
  M 800.14 464.92
  C 804.95 453.28 813.09 445.84 823.59 439.71
  Q 832.12 434.73 841.32 429.27
  A 0.97 0.96 54.1 0 1 842.54 429.47
  L 848.01 435.77
  A 0.87 0.86 -36.5 0 1 847.81 437.07
  Q 838.58 442.87 829.88 447.63
  Q 816.22 455.10 810.27 468.33
  Q 807.69 474.07 806.03 479.28
  Q 805.78 480.04 805.14 479.56
  Q 801.26 476.66 797.99 473.03
  A 2.10 2.10 0.0 0 1 797.63 470.75
  Q 798.93 467.85 800.14 464.92
  Z"
/>
<path fill="#ffffff" d="
  M 606.24 430.37
  Q 614.33 434.30 623.30 439.67
  Q 633.54 445.80 638.64 451.92
  Q 645.85 460.55 649.62 471.00
  C 650.05 472.17 650.11 473.39 649.11 474.30
  Q 645.56 477.53 641.59 480.69
  A 0.51 0.50 65.8 0 1 640.78 480.38
  Q 636.94 459.15 619.32 448.50
  Q 608.82 442.16 598.70 436.31
  A 0.18 0.18 0.0 0 1 598.67 436.02
  Q 602.30 433.10 605.73 430.42
  A 0.49 0.49 0.0 0 1 606.24 430.37
  Z"
/>
<path fill="#ffffff" d="
  M 583.55 445.52
  A 1.85 1.84 -45.7 0 1 583.57 447.54
  Q 582.02 449.98 579.85 452.13
  Q 575.70 456.25 571.57 460.10
  Q 569.93 461.63 569.78 459.39
  Q 568.88 445.99 569.47 432.62
  A 0.62 0.62 0.0 0 1 570.51 432.20
  Q 574.61 436.06 579.02 440.21
  Q 581.66 442.69 583.55 445.52
  Z"
/>
<path fill="#ffffff" d="
  M 865.47 447.85
  A 2.14 2.13 -44.9 0 1 865.48 445.69
  C 868.11 441.27 871.45 438.32 875.47 434.37
  Q 876.03 433.82 876.70 433.75
  A 0.96 0.95 -2.2 0 1 877.74 434.71
  Q 877.66 443.79 877.78 452.68
  C 877.81 454.77 877.39 456.80 876.94 458.84
  A 0.38 0.38 0.0 0 1 876.37 459.09
  Q 869.58 454.97 865.47 447.85
  Z"
/>
<path fill="#ffffff" d="
  M 875.90 467.92
  Q 870.68 482.25 861.34 490.45
  C 857.30 493.99 853.01 497.38 848.51 499.99
  Q 841.01 504.35 833.52 508.47
  Q 833.05 508.72 832.71 508.32
  L 827.54 502.18
  A 0.61 0.60 53.9 0 1 827.68 501.27
  C 837.10 495.44 846.46 490.23 853.98 481.82
  C 861.00 473.98 862.28 464.38 862.81 454.06
  Q 862.86 453.03 863.34 452.12
  A 0.64 0.64 0.0 0 1 864.35 451.96
  Q 869.99 457.55 875.55 463.02
  Q 876.72 464.17 876.49 465.64
  Q 876.32 466.76 875.90 467.92
  Z"
/>
<path fill="#ffffff" d="
  M 579.95 483.98
  C 575.76 479.16 572.81 472.84 571.30 466.63
  Q 570.81 464.62 572.24 462.97
  Q 577.66 456.71 583.68 452.30
  A 0.30 0.30 0.0 0 1 584.15 452.47
  Q 584.41 453.58 584.37 454.76
  C 583.72 472.24 592.06 485.08 606.70 493.49
  Q 612.93 497.06 619.45 500.90
  Q 620.34 501.43 620.06 502.43
  Q 619.92 502.89 619.20 503.75
  Q 617.09 506.28 615.16 508.57
  A 1.14 1.14 0.0 0 1 613.73 508.83
  C 601.27 501.78 589.31 494.73 579.95 483.98
  Z"
/>
<path fill="#ffffff" d="
  M 752.14 470.62
  Q 765.72 464.38 775.36 456.59
  A 1.50 1.49 -46.8 0 1 777.16 456.53
  Q 780.58 458.99 782.83 462.33
  Q 783.51 463.34 782.60 464.14
  Q 776.50 469.52 772.11 471.94
  Q 762.14 477.45 752.42 482.94
  Q 749.03 484.85 745.31 487.06
  A 3.51 3.49 76.6 0 0 743.60 489.85
  L 742.57 505.99
  A 1.04 1.04 0.0 0 1 741.01 506.82
  Q 739.49 505.94 738.46 504.51
  Q 736.80 502.19 734.92 500.21
  C 734.45 499.72 734.00 498.70 734.00 498.02
  Q 733.99 492.46 733.86 487.11
  Q 733.82 485.40 734.89 484.03
  Q 741.46 475.52 752.14 470.62
  Z"
/>
<path fill="#ffffff" d="
  M 702.96 487.93
  Q 700.67 486.12 698.35 484.83
  Q 688.46 479.32 678.42 473.96
  C 673.35 471.25 668.01 467.67 663.70 463.52
  A 0.84 0.84 0.0 0 1 663.73 462.28
  L 670.09 456.83
  A 1.23 1.22 43.8 0 1 671.64 456.80
  C 676.16 460.34 680.66 463.30 685.73 465.95
  Q 696.42 471.55 706.21 476.79
  C 709.01 478.28 713.05 480.95 713.44 484.40
  Q 714.08 490.07 713.65 498.99
  Q 713.56 500.78 712.32 502.06
  Q 709.37 505.14 706.25 507.69
  Q 704.81 508.86 704.71 507.00
  L 703.83 489.62
  A 2.31 2.29 17.9 0 0 702.96 487.93
  Z"
/>
<path fill="#ffffff" d="
  M 807.10 495.76
  C 807.26 499.22 801.85 504.45 799.26 506.39
  Q 798.06 507.29 797.37 505.96
  Q 797.04 505.34 797.01 504.61
  Q 796.47 493.96 796.16 481.33
  Q 796.12 479.38 796.47 477.72
  A 0.77 0.77 0.0 0 1 797.73 477.29
  L 805.01 483.51
  A 4.42 4.40 18.3 0 1 806.53 486.51
  Q 806.90 491.10 807.10 495.76
  Z"
/>
<path fill="#ffffff" d="
  M 640.54 497.84
  L 641.15 485.42
  A 1.10 1.10 0.0 0 1 641.52 484.65
  L 649.18 477.86
  A 1.10 1.10 0.0 0 1 651.01 478.72
  L 650.10 505.17
  A 1.10 1.10 0.0 0 1 648.23 505.91
  L 640.87 498.68
  A 1.10 1.10 0.0 0 1 640.54 497.84
  Z"
/>
<path fill="#ffffff" d="
  M 650.50 517.28
  C 650.79 519.16 653.13 520.42 654.67 521.25
  Q 660.06 524.12 664.52 527.19
  C 668.47 529.90 671.16 533.67 675.02 536.55
  A 0.91 0.90 -59.9 0 1 675.31 537.65
  L 673.26 542.24
  Q 673.00 542.82 672.42 542.57
  C 666.67 540.13 661.38 536.08 655.84 533.10
  Q 649.52 529.70 643.53 525.78
  C 639.94 523.44 638.80 520.05 639.28 515.81
  Q 639.92 510.20 639.86 504.66
  Q 639.83 502.17 641.69 503.83
  L 647.91 509.38
  A 6.16 6.13 17.6 0 1 649.94 513.27
  Q 650.19 515.30 650.50 517.28
  Z"
/>
<path fill="#ffffff" d="
  M 624.86 514.85
  L 617.90 511.09
  A 1.19 1.19 0.0 0 1 617.62 509.21
  L 623.18 503.57
  A 1.19 1.19 0.0 0 1 625.12 503.94
  L 626.48 507.16
  A 1.19 1.19 0.0 0 1 626.57 507.62
  L 626.62 513.80
  A 1.19 1.19 0.0 0 1 624.86 514.85
  Z"
/>
<path fill="#ffffff" d="
  M 793.47 520.78
  C 797.33 519.05 795.78 515.29 798.06 512.54
  Q 801.82 508.01 805.93 504.17
  Q 806.84 503.33 807.42 504.40
  Q 807.55 504.63 807.60 505.50
  Q 807.99 513.15 807.50 520.19
  C 807.19 524.71 799.61 528.76 796.03 530.61
  Q 784.90 536.38 774.87 542.37
  Q 773.77 543.04 773.56 541.76
  Q 773.05 538.52 773.01 538.24
  A 2.11 2.10 -22.8 0 1 773.84 536.22
  Q 777.89 533.23 780.31 529.93
  C 783.46 525.65 788.61 522.96 793.47 520.78
  Z"
/>
<path fill="#ffffff" d="
  M 825.00 504.46
  L 829.00 508.89
  A 1.84 1.84 0.0 0 1 828.47 511.76
  L 823.36 514.40
  A 1.84 1.84 0.0 0 1 820.69 512.98
  L 820.25 509.17
  A 1.84 1.84 0.0 0 1 820.42 508.17
  L 821.98 504.90
  A 1.84 1.84 0.0 0 1 825.00 504.46
  Z"
/>
<path fill="#ffffff" d="
  M 705.37 524.57
  Q 703.69 521.48 704.72 514.93
  A 5.70 5.70 0.0 0 1 706.51 511.60
  L 711.80 506.77
  Q 713.49 505.22 713.52 507.52
  L 713.74 527.76
  Q 713.76 529.32 712.21 529.20
  Q 707.68 528.83 705.37 524.57
  Z"
/>
<path fill="#ffffff" d="
  M 743.38 516.73
  C 743.25 521.65 742.44 525.66 737.91 528.40
  Q 736.33 529.35 734.95 529.03
  A 1.24 1.24 0.0 0 1 733.98 527.81
  L 734.01 507.18
  A 0.65 0.65 0.0 0 1 734.67 506.54
  Q 734.96 506.54 735.25 506.59
  Q 735.57 506.64 735.81 506.83
  Q 739.01 509.37 742.28 513.51
  Q 743.43 514.97 743.38 516.73
  Z"
/>
<path fill="#ffffff" d="
  M 519.87 541.25
  Q 520.41 541.78 521.05 542.15
  Q 539.74 552.98 557.85 563.28
  Q 558.92 563.90 558.13 564.86
  L 553.39 570.62
  A 1.49 1.48 34.8 0 1 551.50 570.96
  Q 526.69 556.65 501.95 542.25
  Q 499.81 541.00 498.16 539.19
  A 0.97 0.94 35.7 0 1 497.98 538.17
  Q 499.03 535.73 501.10 534.50
  Q 514.40 526.57 527.40 518.79
  C 535.89 513.71 543.44 510.43 552.36 509.20
  Q 556.15 508.68 559.62 512.35
  Q 562.54 515.44 565.40 518.36
  Q 565.97 518.95 566.38 519.63
  A 0.83 0.83 0.0 0 1 565.75 520.88
  Q 559.37 521.46 553.49 522.82
  Q 548.88 523.88 542.69 527.27
  Q 530.48 533.95 519.92 540.77
  A 0.31 0.31 0.0 0 0 519.87 541.25
  Z"
/>
<path fill="#ffffff" d="
  M 866.65 524.97
  Q 861.39 527.74 856.30 530.18
  Q 854.85 530.88 853.85 529.62
  L 849.65 524.34
  Q 848.74 523.19 850.01 522.46
  C 859.77 516.82 869.89 511.64 881.03 509.40
  Q 883.14 508.98 885.21 509.16
  Q 887.10 509.33 885.83 510.73
  Q 881.44 515.58 877.67 519.93
  Q 875.86 522.03 873.94 522.41
  Q 869.98 523.22 866.65 524.97
  Z"
/>
<path fill="#ffffff" d="
  M 573.76 522.03
  C 568.66 519.95 564.57 514.60 561.61 509.88
  A 0.30 0.30 0.0 0 1 561.90 509.42
  Q 573.46 510.68 581.73 514.35
  Q 588.67 517.42 598.41 523.12
  A 0.72 0.72 0.0 0 1 598.57 524.24
  Q 595.79 527.27 593.81 530.79
  Q 593.38 531.57 592.59 531.13
  Q 583.25 525.89 573.76 522.03
  Z"
/>
<path fill="#ffffff" d="
  M 924.71 540.64
  Q 921.69 537.91 918.09 535.85
  Q 909.22 530.79 899.59 525.14
  C 897.12 523.69 894.27 522.76 891.43 522.44
  Q 887.07 521.94 882.26 520.83
  A 0.62 0.62 0.0 0 1 881.88 519.88
  Q 885.14 514.93 892.10 510.30
  C 894.42 508.75 897.21 509.62 899.68 510.13
  Q 907.17 511.66 914.04 515.50
  Q 929.30 524.03 945.68 533.77
  Q 947.70 534.98 949.31 536.74
  Q 950.57 538.12 949.12 539.31
  Q 946.78 541.23 944.68 542.46
  Q 922.33 555.60 899.92 568.62
  Q 898.23 569.61 896.44 570.50
  Q 895.13 571.15 894.24 569.99
  L 890.10 564.61
  Q 889.19 563.41 890.48 562.64
  C 901.65 555.91 913.38 548.98 924.66 541.34
  Q 925.13 541.02 924.71 540.64
  Z"
/>
<path fill="#ffffff" d="
  M 842.92 526.13
  Q 844.06 525.53 845.26 525.16
  Q 845.91 524.96 846.42 525.45
  Q 849.79 528.70 851.65 532.09
  A 0.62 0.61 -30.6 0 1 851.44 532.90
  C 847.98 535.14 841.63 539.63 837.54 537.68
  Q 834.45 536.21 831.79 533.68
  A 0.74 0.73 50.6 0 1 831.90 532.53
  Q 837.44 529.02 842.92 526.13
  Z"
/>
<path fill="#ffffff" d="
  M 606.03 538.74
  L 596.65 533.50
  A 1.50 1.50 0.0 0 1 596.17 531.30
  L 600.12 525.88
  A 1.50 1.50 0.0 0 1 602.04 525.45
  L 614.26 531.99
  A 1.50 1.50 0.0 0 1 614.33 534.59
  L 607.54 538.72
  A 1.50 1.50 0.0 0 1 606.03 538.74
  Z"
/>
<path fill="#ffffff" d="
  M 679.94 538.61
  A 0.64 0.64 0.0 0 1 680.84 538.63
  L 680.97 538.76
  A 5.68 3.74 46.2 0 1 682.20 545.45
  L 682.14 545.50
  A 5.68 3.74 46.2 0 1 675.51 543.99
  L 675.39 543.86
  A 0.64 0.64 0.0 0 1 675.40 542.96
  L 679.94 538.61
  Z"
/>
<path fill="#ffffff" d="
  M 766.70 547.41
  A 1.25 1.24 -46.5 0 1 765.69 547.44
  Q 764.83 547.09 764.64 545.87
  C 764.34 543.90 763.48 538.56 766.97 538.57
  C 769.21 538.58 770.43 541.65 771.88 543.13
  Q 772.23 543.48 771.88 543.83
  Q 769.67 546.04 766.70 547.41
  Z"
/>
<path fill="#ffffff" d="
  M 818.93 554.72
  C 816.44 553.34 814.08 554.59 811.96 555.84
  Q 805.11 559.86 798.83 563.80
  Q 797.39 564.70 796.29 563.39
  L 791.18 557.25
  A 0.62 0.61 56.5 0 1 791.37 556.31
  Q 799.46 552.12 809.13 545.84
  C 812.03 543.95 816.14 541.77 819.58 542.64
  Q 823.59 543.66 827.65 546.54
  Q 833.48 550.67 840.48 554.63
  A 0.59 0.59 0.0 0 1 840.67 555.49
  L 834.91 563.36
  A 1.08 1.07 33.2 0 1 833.50 563.65
  C 828.63 560.85 823.94 557.48 818.93 554.72
  Z"
/>
<path fill="#ffffff" d="
  M 632.66 554.52
  Q 630.26 553.13 627.85 554.60
  Q 620.59 559.03 614.22 563.07
  Q 613.13 563.76 612.33 562.74
  L 607.06 555.93
  Q 606.57 555.30 607.25 554.89
  Q 614.83 550.18 622.43 545.02
  Q 628.93 540.62 635.95 544.78
  Q 646.94 551.28 656.71 556.70
  Q 657.55 557.17 656.88 557.86
  L 651.49 563.37
  Q 650.05 564.84 648.30 563.78
  Q 640.01 558.78 632.66 554.52
  Z"
/>
<path fill="#ffffff" d="
  M 588.48 565.21
  C 593.99 563.70 599.13 560.08 604.07 557.04
  A 0.73 0.73 0.0 0 1 605.05 557.25
  L 609.81 564.20
  Q 610.55 565.27 609.46 565.97
  C 605.36 568.64 600.86 571.57 596.41 573.21
  Q 582.37 578.39 570.15 576.69
  Q 564.85 575.95 556.63 573.55
  Q 553.91 572.75 555.84 570.68
  Q 557.91 568.45 560.36 566.29
  Q 561.88 564.95 563.86 565.36
  C 572.08 567.04 580.43 567.42 588.48 565.21
  Z"
/>
<path fill="#ffffff" d="
  M 859.11 565.12
  C 867.32 567.11 875.78 566.78 884.01 565.09
  Q 886.43 564.60 888.02 566.49
  L 891.65 570.81
  Q 893.21 572.67 890.91 573.42
  C 877.92 577.64 865.31 579.26 852.02 574.27
  C 846.97 572.37 842.21 569.07 837.69 565.92
  A 0.90 0.90 0.0 0 1 837.45 564.68
  Q 839.80 561.11 842.81 557.95
  A 1.36 1.35 38.6 0 1 844.56 557.76
  C 849.01 560.78 853.91 563.86 859.11 565.12
  Z"
/>
<path fill="#ffffff" d="
  M 776.78 564.25
  L 787.13 558.74
  A 1.67 1.67 0.0 0 1 789.26 559.22
  L 793.27 564.65
  A 1.67 1.67 0.0 0 1 792.57 567.18
  L 784.63 570.49
  A 1.67 1.67 0.0 0 1 783.23 570.45
  L 776.82 567.22
  A 1.67 1.67 0.0 0 1 776.78 564.25
  Z"
/>
<path fill="#ffffff" d="
  M 662.24 570.63
  L 654.72 567.51
  A 1.87 1.87 0.0 0 1 654.14 564.44
  L 658.96 559.79
  A 1.87 1.87 0.0 0 1 661.25 559.55
  L 668.26 563.96
  A 1.87 1.87 0.0 0 1 668.42 567.02
  L 664.11 570.38
  A 1.87 1.87 0.0 0 1 662.24 570.63
  Z"
/>
<path fill="#ffffff" d="
  M 836.42 602.57
  C 844.77 596.89 852.52 593.26 862.64 590.93
  C 872.54 588.65 882.59 590.94 891.12 595.51
  A 0.94 0.94 0.0 0 1 891.42 596.92
  L 886.48 603.35
  A 1.21 1.20 -62.6 0 1 885.18 603.77
  Q 879.06 601.95 873.46 601.61
  C 862.57 600.96 854.62 605.15 845.44 610.19
  A 1.83 1.83 0.0 0 1 843.31 609.93
  L 836.35 603.41
  Q 835.86 602.95 836.42 602.57
  Z"
/>
<path fill="#ffffff" d="
  M 603.32 610.86
  C 596.48 606.48 588.32 602.19 580.39 601.39
  Q 572.34 600.58 562.05 603.11
  A 0.45 0.44 -28.0 0 1 561.64 602.99
  Q 558.20 599.49 555.14 596.03
  A 0.09 0.09 0.0 0 1 555.17 595.89
  Q 565.43 591.38 574.53 590.42
  Q 578.13 590.05 582.90 590.91
  Q 598.83 593.78 611.14 603.17
  A 0.48 0.48 0.0 0 1 611.20 603.89
  L 604.59 610.71
  A 1.02 1.01 38.0 0 1 603.32 610.86
  Z"
/>
<path fill="#ffffff" d="
  M 520.34 627.17
  Q 522.55 628.99 525.38 630.72
  Q 537.55 638.13 544.53 641.72
  Q 553.16 646.15 564.51 647.72
  Q 566.09 647.93 565.48 649.40
  Q 565.09 650.32 564.34 651.07
  Q 560.43 654.97 556.61 658.70
  Q 555.20 660.08 553.25 659.77
  Q 543.01 658.11 533.90 653.10
  Q 520.01 645.45 505.50 636.68
  Q 501.70 634.38 498.44 631.19
  A 1.39 1.39 0.0 0 1 498.42 629.22
  Q 500.20 627.41 502.49 626.05
  Q 526.14 612.03 552.23 596.92
  Q 552.53 596.74 552.77 596.99
  L 559.11 603.64
  A 0.25 0.25 0.0 0 1 559.06 604.03
  L 520.38 626.68
  Q 520.00 626.90 520.34 627.17
  Z"
/>
<path fill="#ffffff" d="
  M 924.61 627.54
  Q 925.60 626.84 924.56 626.21
  L 889.49 605.08
  A 0.80 0.80 0.0 0 1 889.30 603.86
  L 894.61 597.79
  Q 895.15 597.18 895.88 597.54
  C 896.97 598.07 898.16 598.43 899.22 599.05
  C 907.10 603.70 914.94 608.19 922.68 612.93
  Q 933.46 619.52 945.39 626.11
  Q 947.28 627.16 949.15 628.90
  A 1.64 1.64 0.0 0 1 949.15 631.32
  Q 945.23 634.95 940.27 637.76
  Q 929.16 644.06 918.59 650.11
  Q 907.67 656.35 896.23 659.74
  Q 893.14 660.65 890.74 658.27
  Q 886.03 653.60 882.04 649.00
  A 0.84 0.84 0.0 0 1 882.51 647.62
  C 891.02 645.95 898.33 644.09 906.21 639.44
  Q 915.84 633.77 924.61 627.54
  Z"
/>
<path fill="#ffffff" d="
  M 667.93 604.88
  L 660.11 609.15
  A 0.91 0.91 0.0 0 1 659.04 609.00
  L 653.25 603.38
  A 0.91 0.91 0.0 0 1 653.40 601.95
  L 660.53 597.46
  A 0.91 0.91 0.0 0 1 661.62 597.55
  L 668.11 603.41
  A 0.91 0.91 0.0 0 1 667.93 604.88
  Z"
/>
<path fill="#ffffff" d="
  M 787.06 609.14
  C 783.92 607.19 780.41 606.04 777.30 604.07
  A 0.55 0.55 0.0 0 1 777.39 603.09
  Q 779.74 602.16 782.05 601.31
  C 783.48 600.78 784.24 599.56 785.06 598.38
  A 1.57 1.56 -58.8 0 1 787.07 597.88
  Q 790.10 599.47 792.85 601.47
  Q 794.54 602.71 793.13 604.26
  L 788.90 608.88
  Q 788.09 609.78 787.06 609.14
  Z"
/>
<path fill="#ffffff" d="
  M 626.89 625.28
  Q 615.53 619.32 606.58 612.91
  A 0.79 0.79 0.0 0 1 606.50 611.68
  L 613.16 605.66
  A 1.47 1.46 39.2 0 1 614.92 605.49
  L 628.52 613.88
  A 3.52 3.50 -44.1 0 0 632.12 613.93
  Q 639.58 609.62 650.07 604.07
  Q 650.35 603.93 650.57 604.15
  L 656.86 610.41
  A 0.21 0.21 0.0 0 1 656.82 610.74
  Q 643.49 619.24 631.00 625.36
  Q 628.96 626.36 626.89 625.28
  Z"
/>
<path fill="#ffffff" d="
  M 798.76 605.05
  L 814.91 613.36
  Q 817.01 614.44 819.02 613.20
  L 831.62 605.39
  A 2.39 2.38 -42.7 0 1 834.30 605.49
  Q 837.90 608.13 840.49 611.76
  Q 840.89 612.32 840.33 612.73
  Q 833.19 617.94 824.68 623.11
  Q 822.52 624.42 820.27 625.50
  C 818.15 626.52 815.80 625.65 813.89 624.64
  Q 803.25 619.01 791.78 612.06
  Q 790.76 611.44 791.58 610.58
  L 796.44 605.45
  A 1.96 1.96 0.0 0 1 798.76 605.05
  Z"
/>
<path fill="#ffffff" d="
  M 766.75 620.57
  C 768.51 621.79 770.70 622.17 772.35 623.55
  Q 772.90 624.01 772.41 624.53
  L 768.07 629.19
  A 1.92 1.91 37.3 0 1 765.66 629.51
  C 763.59 628.22 764.41 623.16 764.94 621.23
  A 1.18 1.18 0.0 0 1 766.75 620.57
  Z"
/>
<path fill="#ffffff" d="
  M 680.38 620.98
  A 1.07 1.07 0.0 0 1 681.83 621.41
  L 681.90 621.53
  A 4.91 3.77 61.6 0 1 680.92 627.64
  L 680.78 627.72
  A 4.91 3.77 61.6 0 1 675.12 625.19
  L 675.06 625.07
  A 1.07 1.07 0.0 0 1 675.49 623.62
  L 680.38 620.98
  Z"
/>
<path fill="#ffffff" d="
  M 651.84 648.82
  Q 650.66 649.54 650.65 651.00
  C 650.61 653.51 650.08 656.05 648.45 658.01
  Q 645.36 661.73 641.67 664.35
  A 0.72 0.72 0.0 0 1 640.62 664.12
  Q 640.28 663.52 640.21 662.81
  Q 639.25 652.49 640.30 646.40
  C 640.76 643.70 642.86 642.52 645.20 641.14
  Q 656.13 634.72 667.36 628.09
  Q 669.51 626.81 671.56 625.99
  Q 672.11 625.77 672.55 626.17
  Q 674.14 627.61 674.89 629.65
  A 1.20 1.19 54.8 0 1 674.69 630.83
  Q 667.69 639.13 665.48 640.48
  Q 658.82 644.53 651.84 648.82
  Z"
/>
<path fill="#ffffff" d="
  M 778.53 627.55
  Q 788.54 633.16 802.88 641.16
  Q 807.35 643.64 807.84 649.19
  Q 808.48 656.52 806.97 663.48
  Q 806.79 664.30 806.13 663.79
  Q 800.88 659.80 796.82 655.17
  C 795.48 653.65 796.48 650.14 793.94 648.51
  C 789.00 645.36 783.75 642.27 779.70 637.97
  Q 776.43 634.51 773.24 631.65
  Q 772.74 631.20 772.78 630.52
  Q 772.92 628.12 774.80 626.66
  Q 775.16 626.38 775.62 626.47
  Q 777.18 626.80 778.53 627.55
  Z"
/>
<path fill="#ffffff" d="
  M 840.79 629.11
  L 851.12 634.32
  A 1.72 1.72 0.0 0 1 851.56 637.07
  L 846.28 642.39
  A 1.72 1.72 0.0 0 1 844.22 642.68
  L 832.50 636.14
  A 1.72 1.72 0.0 0 1 832.45 633.16
  L 839.13 629.17
  A 1.72 1.72 0.0 0 1 840.79 629.11
  Z"
/>
<path fill="#ffffff" d="
  M 614.85 635.38
  L 602.23 642.61
  A 1.37 1.37 0.0 0 1 600.53 642.33
  L 595.62 636.86
  A 1.37 1.37 0.0 0 1 596.01 634.73
  L 605.78 629.65
  A 1.37 1.37 0.0 0 1 606.96 629.61
  L 614.71 632.94
  A 1.37 1.37 0.0 0 1 614.85 635.38
  Z"
/>
<path fill="#ffffff" d="
  M 575.14 645.64
  C 580.62 643.24 586.07 640.81 591.34 637.81
  Q 592.34 637.24 593.16 638.04
  L 598.51 643.23
  Q 599.35 644.04 598.38 644.69
  Q 582.53 655.33 561.12 659.81
  Q 560.27 659.99 560.71 659.24
  C 563.59 654.38 569.92 647.93 575.14 645.64
  Z"
/>
<path fill="#ffffff" d="
  M 866.17 642.80
  C 870.51 644.65 875.09 645.50 878.67 649.06
  C 881.77 652.13 886.30 655.68 887.92 659.56
  Q 888.16 660.13 887.54 660.16
  Q 884.64 660.33 882.09 659.61
  Q 870.47 656.34 857.33 650.13
  Q 852.41 647.80 848.12 644.71
  A 0.21 0.20 -47.4 0 1 848.11 644.39
  L 855.22 638.00
  A 0.45 0.45 0.0 0 1 855.72 637.94
  Q 861.00 640.60 866.17 642.80
  Z"
/>
<path fill="#ffffff" d="
  M 708.85 640.33
  Q 709.18 640.14 709.50 639.95
  Q 713.26 637.67 713.34 642.06
  L 713.72 661.90
  A 0.37 0.36 17.4 0 1 713.14 662.20
  C 710.27 660.12 706.05 656.45 704.72 653.30
  Q 703.83 651.20 704.44 646.88
  Q 705.05 642.53 708.85 640.33
  Z"
/>
<path fill="#ffffff" d="
  M 741.25 656.11
  Q 737.88 659.74 734.67 662.45
  Q 734.05 662.97 734.03 662.16
  Q 733.65 651.00 733.95 640.70
  A 1.24 1.23 9.1 0 1 735.54 639.56
  Q 743.97 642.07 743.33 651.56
  Q 743.17 654.03 741.25 656.11
  Z"
/>
<path fill="#ffffff" d="
  M 617.04 656.92
  L 625.06 652.71
  A 1.30 1.30 0.0 0 1 626.94 654.06
  L 625.51 663.01
  A 1.30 1.30 0.0 0 1 623.47 663.86
  L 616.88 659.12
  A 1.30 1.30 0.0 0 1 617.04 656.92
  Z"
/>
<path fill="#ffffff" d="
  M 822.82 652.83
  L 830.44 656.76
  A 1.57 1.57 0.0 0 1 830.64 659.43
  L 824.41 663.95
  A 1.57 1.57 0.0 0 1 822.12 663.45
  L 820.58 660.70
  A 1.57 1.57 0.0 0 1 820.38 659.89
  L 820.53 654.18
  A 1.57 1.57 0.0 0 1 822.82 652.83
  Z"
/>
<path fill="#ffffff" d="
  M 571.23 701.03
  C 574.22 693.10 576.98 687.03 583.00 681.03
  Q 596.14 667.94 614.01 659.23
  Q 614.44 659.03 614.77 659.37
  L 620.08 664.88
  A 1.42 1.42 0.0 0 1 619.94 666.98
  C 615.19 670.73 609.25 673.22 604.37 676.36
  Q 583.66 689.71 583.87 715.12
  A 0.63 0.63 0.0 0 1 582.94 715.68
  Q 582.01 715.18 581.23 714.50
  Q 576.20 710.12 571.56 703.73
  Q 570.68 702.51 571.23 701.03
  Z"
/>
<path fill="#ffffff" d="
  M 683.97 703.21
  Q 677.01 706.61 671.42 711.96
  Q 671.05 712.32 670.68 711.95
  L 664.15 705.44
  A 0.62 0.61 46.6 0 1 664.17 704.55
  C 667.77 701.25 671.47 698.35 675.71 695.95
  Q 688.78 688.56 701.38 681.75
  C 703.19 680.78 703.78 679.10 703.88 677.13
  Q 704.28 668.98 704.48 660.96
  Q 704.53 659.06 706.01 660.24
  L 712.25 665.21
  A 4.00 3.99 -70.9 0 1 713.75 668.31
  Q 713.78 674.09 713.74 680.96
  Q 713.73 683.79 712.38 685.58
  C 709.85 688.96 706.85 691.45 702.93 693.29
  C 696.47 696.34 690.39 700.06 683.97 703.21
  Z"
/>
<path fill="#ffffff" d="
  M 745.60 681.78
  C 753.76 686.12 762.09 690.44 770.21 694.80
  Q 777.74 698.85 783.57 704.47
  Q 783.99 704.87 783.61 705.32
  L 777.47 712.53
  A 0.70 0.70 0.0 0 1 776.49 712.61
  Q 771.85 708.69 766.96 705.73
  Q 757.56 700.05 748.66 695.61
  C 741.90 692.25 737.84 688.97 734.25 682.87
  A 3.33 3.25 -61.1 0 1 733.80 681.24
  L 733.71 670.22
  Q 733.69 667.73 735.49 666.02
  L 741.31 660.51
  Q 743.11 658.79 743.13 661.28
  L 743.26 677.92
  A 4.41 4.40 -76.3 0 0 745.60 681.78
  Z"
/>
<path fill="#ffffff" d="
  M 861.76 705.85
  C 860.18 693.28 852.35 681.89 841.65 675.66
  Q 834.38 671.43 826.71 667.51
  A 1.01 1.01 0.0 0 1 826.53 665.83
  L 833.40 660.10
  Q 833.82 659.76 834.33 659.91
  Q 836.28 660.46 838.04 661.45
  Q 850.50 668.40 860.42 677.22
  Q 871.53 687.10 875.78 701.17
  Q 876.34 703.04 874.99 704.69
  Q 869.56 711.30 863.97 716.59
  A 0.53 0.53 0.0 0 1 863.08 716.28
  Q 862.38 710.79 861.76 705.85
  Z"
/>
<path fill="#ffffff" d="
  M 797.80 660.47
  Q 803.48 664.42 806.59 668.90
  A 2.30 2.28 27.3 0 1 806.98 670.11
  Q 807.15 675.55 806.42 680.82
  C 805.97 684.12 800.54 688.87 797.29 691.84
  Q 796.87 692.23 796.71 691.67
  Q 795.89 688.72 796.00 685.69
  Q 796.40 674.94 796.68 663.32
  Q 796.71 662.00 797.02 660.76
  Q 797.20 660.04 797.80 660.47
  Z"
/>
<path fill="#ffffff" d="
  M 640.91 681.64
  L 640.73 669.64
  A 1.06 1.06 0.0 0 1 641.07 668.85
  L 648.41 662.03
  A 1.06 1.06 0.0 0 1 650.19 662.80
  L 650.44 688.97
  A 1.06 1.06 0.0 0 1 648.63 689.73
  L 641.23 682.37
  A 1.06 1.06 0.0 0 1 640.91 681.64
  Z"
/>
<path fill="#ffffff" d="
  M 648.20 700.16
  Q 641.39 716.88 627.64 725.66
  Q 618.20 731.68 607.31 737.89
  Q 606.04 738.62 604.92 737.66
  L 598.85 732.43
  Q 597.92 731.64 599.02 731.10
  Q 613.23 724.06 622.85 717.36
  Q 638.04 706.78 640.80 687.35
  Q 640.89 686.72 641.41 687.08
  Q 645.28 689.79 648.17 693.19
  C 650.10 695.44 649.16 697.81 648.20 700.16
  Z"
/>
<path fill="#ffffff" d="
  M 848.31 730.75
  A 0.60 0.60 0.0 0 1 848.47 731.72
  C 846.24 733.92 844.03 736.22 842.82 739.16
  A 0.65 0.65 0.0 0 1 841.92 739.49
  Q 831.43 734.02 820.83 727.08
  Q 804.87 716.64 798.17 698.23
  Q 797.57 696.60 798.65 695.25
  Q 801.54 691.64 804.89 688.82
  A 0.72 0.72 0.0 0 1 806.06 689.20
  Q 811.08 708.95 827.26 719.12
  Q 837.39 725.48 848.31 730.75
  Z"
/>
<path fill="#ffffff" d="
  M 736.26 751.19
  Q 733.94 741.58 733.82 731.50
  Q 733.65 717.84 733.74 705.91
  Q 733.77 701.91 737.08 704.14
  L 739.92 706.04
  Q 743.32 708.32 743.25 712.40
  C 743.08 723.05 742.73 733.51 744.37 743.71
  A 2.47 2.46 -26.1 0 1 743.61 745.91
  L 737.52 751.57
  Q 736.57 752.45 736.26 751.19
  Z"
/>
<path fill="#ffffff" d="
  M 706.39 706.59
  C 708.18 705.37 710.40 704.13 712.56 703.79
  A 0.87 0.87 0.0 0 1 713.57 704.62
  C 714.00 719.33 714.30 735.24 712.05 749.85
  Q 711.68 752.20 709.82 750.72
  L 704.85 746.78
  A 4.38 4.38 0.0 0 1 703.22 742.83
  C 704.45 732.58 703.93 722.05 704.15 712.00
  C 704.20 709.85 704.52 707.87 706.39 706.59
  Z"
/>
<path fill="#ffffff" d="
  M 668.71 714.76
  C 662.75 721.16 660.33 729.15 658.83 737.94
  C 658.25 741.30 652.49 745.86 649.96 747.92
  Q 649.06 748.65 648.87 747.51
  Q 648.75 746.80 648.77 746.08
  Q 648.92 737.89 650.64 729.23
  C 652.37 720.48 655.95 714.26 661.30 707.58
  Q 661.75 707.02 662.27 707.51
  L 668.67 713.52
  Q 669.31 714.12 668.71 714.76
  Z"
/>
<path fill="#ffffff" d="
  M 787.41 735.29
  C 786.01 728.13 783.11 721.73 779.25 715.61
  A 0.72 0.70 -43.1 0 1 779.29 714.80
  Q 782.14 710.99 785.86 707.49
  A 0.58 0.58 0.0 0 1 786.72 707.56
  C 795.07 718.69 798.07 732.52 798.06 746.30
  A 0.35 0.34 -71.8 0 1 797.51 746.58
  C 794.38 744.28 788.19 739.25 787.41 735.29
  Z"
/>
<path fill="#ffffff" d="
  M 582.17 718.34
  C 583.43 719.58 584.76 721.78 583.22 723.40
  Q 577.67 729.23 570.27 736.48
  A 0.43 0.43 0.0 0 1 569.54 736.19
  Q 568.96 722.63 569.82 709.39
  Q 569.85 708.92 570.05 708.52
  A 1.04 1.03 -54.9 0 1 571.68 708.23
  Q 577.04 713.25 582.17 718.34
  Z"
/>
<path fill="#ffffff" d="
  M 875.48 734.03
  L 863.88 722.50
  A 1.08 1.08 0.0 0 1 863.87 720.98
  L 875.40 709.37
  A 1.08 1.08 0.0 0 1 877.24 710.13
  L 877.32 733.26
  A 1.08 1.08 0.0 0 1 875.48 734.03
  Z"
/>
<path fill="#ffffff" d="
  M 861.80 737.90
  Q 861.93 731.80 862.97 727.02
  Q 863.13 726.28 863.70 726.78
  Q 868.89 731.37 874.15 736.84
  C 876.63 739.42 877.72 741.40 877.81 745.06
  Q 878.00 752.58 877.32 758.62
  A 0.66 0.66 0.0 0 1 876.51 759.18
  Q 874.66 758.73 873.08 757.83
  Q 860.09 750.44 845.33 741.17
  A 1.02 1.02 0.0 0 1 845.14 739.59
  L 850.59 734.03
  Q 851.61 732.98 852.88 733.72
  L 860.91 738.40
  Q 861.78 738.91 861.80 737.90
  Z"
/>
<path fill="#ffffff" d="
  M 585.08 738.94
  C 588.72 737.91 591.90 735.67 595.18 733.67
  Q 596.05 733.14 596.87 733.74
  Q 600.29 736.23 602.43 738.90
  A 1.05 1.04 -34.7 0 1 602.14 740.46
  Q 588.05 748.87 573.41 757.43
  Q 572.18 758.15 570.74 758.66
  Q 569.58 759.07 569.56 757.84
  Q 569.44 751.33 569.34 744.42
  C 569.29 741.05 571.02 738.98 573.45 736.72
  Q 578.13 732.35 582.33 728.40
  Q 582.88 727.88 583.57 727.81
  Q 584.21 727.75 584.21 728.40
  L 584.13 738.22
  Q 584.12 739.21 585.08 738.94
  Z"
/>
<path fill="#ffffff" d="
  M 787.71 781.86
  Q 788.89 762.66 788.43 744.16
  Q 788.38 742.39 789.64 743.63
  L 796.69 750.61
  A 4.96 4.95 -68.7 0 1 798.15 753.95
  Q 798.68 768.43 798.24 780.44
  Q 798.16 782.64 796.51 784.48
  Q 790.91 790.68 783.85 797.20
  Q 783.40 797.61 782.85 797.34
  Q 764.18 788.16 754.41 780.67
  Q 746.11 774.31 740.37 764.32
  Q 738.72 761.45 738.25 757.86
  Q 737.95 755.54 739.62 753.61
  Q 742.09 750.77 744.72 748.71
  Q 745.64 747.99 746.18 749.02
  C 747.95 752.36 749.56 755.75 752.07 758.66
  Q 758.70 766.34 768.10 771.30
  Q 777.25 776.12 787.36 782.04
  A 0.23 0.23 0.0 0 0 787.71 781.86
  Z"
/>
<path fill="#ffffff" d="
  M 659.34 781.70
  Q 659.54 781.75 659.75 781.76
  Q 660.01 781.77 660.23 781.67
  Q 667.69 778.04 676.31 773.12
  Q 683.73 768.90 689.15 764.42
  C 694.49 760.00 697.87 754.20 701.49 748.33
  Q 702.14 747.25 703.08 748.09
  Q 705.71 750.44 708.42 753.35
  C 710.43 755.51 708.76 759.74 707.57 762.15
  C 703.30 770.86 696.48 777.76 688.39 783.13
  Q 676.62 790.93 664.82 796.90
  A 1.29 1.28 55.5 0 1 663.29 796.61
  C 658.93 791.79 653.48 787.97 649.76 783.13
  Q 648.53 781.53 648.52 778.96
  Q 648.46 766.05 648.53 755.23
  C 648.57 750.40 653.65 747.02 657.48 745.06
  A 0.44 0.44 0.0 0 1 658.12 745.38
  Q 658.34 746.82 658.37 748.16
  Q 658.74 764.84 658.85 781.09
  A 0.64 0.63 -84.2 0 0 659.34 781.70
  Z"
/>
<path fill="#ffffff" d="
  M 661.07 798.93
  C 657.87 801.24 653.85 803.82 650.02 804.43
  A 1.21 1.21 0.0 0 1 648.62 803.29
  Q 648.25 795.88 649.01 787.92
  A 0.61 0.60 -70.7 0 1 649.94 787.47
  Q 656.58 791.75 661.26 797.45
  A 1.03 1.02 -37.7 0 1 661.07 798.93
  Z"
/>
<path fill="#ffffff" d="
  M 796.53 804.88
  C 794.01 804.73 788.57 801.03 786.49 799.50
  A 0.67 0.66 38.8 0 1 786.38 798.53
  Q 791.54 792.67 797.27 787.98
  A 0.45 0.45 0.0 0 1 798.01 788.30
  Q 798.48 795.75 798.09 803.49
  Q 798.01 804.98 796.53 804.88
  Z"
/>
<path fill="#ffffff" d="
  M 734.34 888.46
  Q 725.37 887.86 715.93 888.36
  A 1.16 1.16 0.0 0 0 714.83 889.53
  L 714.98 905.66
  Q 714.98 906.29 714.34 906.29
  L 710.56 906.26
  Q 709.89 906.26 709.89 905.59
  Q 709.97 890.29 709.84 875.79
  C 709.82 874.03 710.07 871.88 709.59 869.69
  Q 709.42 868.91 710.22 868.88
  L 714.43 868.76
  Q 715.30 868.73 715.21 869.59
  Q 714.26 877.83 714.80 885.61
  A 1.09 1.08 0.6 0 0 715.79 886.62
  Q 724.97 887.35 734.26 886.99
  Q 734.77 886.97 734.77 886.46
  L 734.78 869.49
  Q 734.78 868.76 735.51 868.78
  L 739.12 868.91
  Q 740.03 868.94 739.91 869.84
  C 739.80 870.74 739.45 871.67 739.43 872.55
  Q 739.06 889.35 739.52 905.89
  Q 739.52 906.23 739.18 906.23
  L 735.04 906.23
  Q 734.60 906.23 734.61 905.79
  L 734.93 889.11
  Q 734.94 888.50 734.34 888.46
  Z"
/>
<path fill="#ffffff" d="
  M 648.05 871.75
  C 648.18 872.35 648.44 873.17 648.44 873.77
  Q 648.35 891.05 648.75 906.05
  Q 648.77 906.80 648.02 906.77
  L 643.46 906.60
  Q 642.61 906.56 642.61 905.72
  C 642.61 904.71 643.01 903.77 643.00 902.74
  Q 642.84 887.21 643.08 871.90
  A 0.84 0.83 0.7 0 0 642.25 871.06
  L 630.34 871.02
  Q 629.36 871.01 629.09 870.08
  Q 629.00 869.77 629.06 869.45
  A 0.70 0.69 -84.1 0 1 629.75 868.88
  L 660.36 869.10
  Q 661.11 869.11 661.15 869.85
  L 661.18 870.27
  A 0.68 0.68 0.0 0 1 660.51 871.00
  L 648.52 871.15
  Q 647.91 871.15 648.05 871.75
  Z"
/>
<path fill="#ffffff" d="
  M 800.08 889.36
  A 0.73 0.72 10.0 0 0 799.10 890.04
  L 799.17 902.96
  A 0.85 0.85 0.0 0 0 800.05 903.80
  Q 804.92 903.62 810.12 903.15
  C 811.41 903.03 812.26 902.46 812.93 901.36
  Q 814.54 898.71 814.35 901.75
  L 814.16 904.78
  A 1.71 1.70 -88.4 0 1 812.47 906.38
  L 795.41 906.47
  A 0.68 0.68 0.0 0 1 794.72 905.79
  L 794.84 869.02
  Q 794.84 868.84 795.02 868.86
  Q 803.08 869.99 811.71 869.87
  Q 812.64 869.85 812.75 870.78
  Q 812.77 871.04 812.71 871.31
  Q 812.58 871.84 812.03 871.82
  L 800.08 871.44
  Q 799.33 871.42 799.32 872.17
  L 799.28 884.99
  Q 799.27 885.81 800.09 885.88
  Q 805.68 886.41 810.51 885.38
  A 0.88 0.88 0.0 0 1 811.58 886.27
  L 811.48 888.75
  Q 811.42 890.16 810.02 890.01
  Q 805.76 889.55 801.50 889.61
  Q 800.78 889.62 800.08 889.36
  Z"
/>
<path fill="#ffffff" d="
  M 1041.66 891.05
  L 887.52 889.80
  Q 886.12 889.79 886.12 888.39
  L 886.12 887.86
  Q 886.12 886.54 887.44 886.40
  Q 890.03 886.12 891.00 886.11
  Q 937.62 885.79 984.25 885.46
  Q 1013.04 885.26 1042.49 886.03
  Q 1044.22 886.07 1044.43 887.80
  Q 1044.58 889.10 1043.41 890.31
  A 2.41 2.38 -67.6 0 1 1041.66 891.05
  Z"
/>
<rect fill="#ffffff" x="402.99" y="889.68" width="159.94" height="2.90" rx="1.43"/>
<path fill="#ffffff" d="
  M 377.33 1050.29
  C 371.69 1058.53 363.96 1062.85 354.14 1064.45
  Q 339.64 1066.82 324.69 1061.37
  C 320.62 1059.88 314.65 1056.90 314.08 1051.99
  Q 312.97 1042.36 315.60 1031.63
  Q 315.83 1030.71 316.37 1029.93
  Q 318.01 1027.60 317.95 1030.44
  Q 317.72 1040.34 322.35 1047.97
  C 331.94 1063.80 353.92 1063.07 365.51 1051.09
  C 369.97 1046.47 371.73 1040.02 371.84 1033.73
  C 371.99 1024.44 367.02 1018.09 360.39 1012.06
  Q 345.61 998.59 331.56 985.62
  C 322.23 977.00 315.39 966.97 317.30 953.74
  Q 318.82 943.19 325.35 935.66
  C 333.25 926.54 343.60 924.37 355.22 925.37
  Q 364.17 926.14 373.35 927.06
  A 1.61 1.60 3.2 0 1 374.79 928.66
  L 374.77 945.78
  Q 374.77 947.32 373.96 946.02
  Q 372.42 943.54 370.84 941.08
  Q 363.65 929.86 349.88 930.89
  Q 332.61 932.18 328.08 948.76
  C 325.29 959.01 330.73 966.49 337.92 973.08
  Q 351.18 985.25 363.52 996.44
  Q 369.91 1002.23 375.09 1007.81
  C 382.73 1016.04 383.87 1026.89 382.22 1037.83
  Q 381.19 1044.64 377.33 1050.29
  Z"
/>
<path fill="#ffffff" d="
  M 1090.64 1004.25
  Q 1089.65 1025.77 1090.86 1047.49
  C 1091.06 1051.07 1091.84 1054.61 1092.28 1058.06
  A 1.00 1.00 0.0 0 0 1093.26 1058.93
  Q 1105.16 1059.06 1117.46 1058.95
  C 1123.75 1058.89 1131.65 1058.23 1137.04 1054.64
  C 1141.92 1051.40 1144.88 1044.88 1147.57 1039.72
  Q 1148.44 1038.06 1149.86 1036.58
  A 1.25 1.25 0.0 0 1 1151.94 1037.02
  Q 1152.14 1037.59 1152.06 1038.27
  C 1151.12 1046.29 1148.09 1056.94 1142.58 1062.82
  C 1141.37 1064.11 1139.38 1064.41 1137.67 1064.58
  Q 1116.73 1066.74 1096.39 1065.99
  C 1087.47 1065.67 1078.72 1065.94 1070.00 1066.03
  Q 1068.77 1066.04 1067.49 1065.80
  Q 1065.50 1065.41 1067.03 1064.08
  Q 1068.52 1062.78 1070.42 1061.85
  C 1073.53 1060.32 1075.36 1057.00 1075.86 1053.61
  C 1076.47 1049.48 1076.97 1045.34 1077.05 1041.16
  C 1077.44 1019.02 1077.09 996.51 1077.01 974.58
  C 1076.97 965.05 1077.46 955.65 1077.68 946.27
  C 1077.85 939.52 1072.66 935.56 1067.65 931.90
  A 0.77 0.76 54.8 0 1 1067.88 930.55
  Q 1068.79 930.28 1069.66 930.28
  C 1099.20 930.39 1118.36 930.63 1141.21 928.44
  A 1.60 1.60 0.0 0 1 1142.96 929.99
  Q 1143.17 937.79 1142.50 945.27
  Q 1142.43 945.95 1141.92 945.50
  C 1138.64 942.66 1136.40 939.48 1131.74 938.60
  Q 1127.30 937.76 1122.30 937.75
  Q 1107.46 937.69 1091.68 937.97
  A 0.99 0.99 0.0 0 0 1090.71 938.95
  Q 1090.57 962.40 1090.81 985.21
  Q 1090.86 989.71 1091.30 994.29
  A 0.99 0.98 -87.3 0 0 1092.09 995.17
  Q 1093.68 995.49 1095.27 995.47
  Q 1107.26 995.33 1120.55 994.59
  C 1126.31 994.27 1129.98 990.43 1134.07 986.93
  A 0.88 0.88 0.0 0 1 1135.47 987.31
  Q 1135.81 988.29 1135.65 989.30
  Q 1134.07 999.61 1133.93 1009.72
  Q 1133.91 1011.08 1132.95 1010.11
  L 1127.79 1004.85
  A 4.45 4.42 -22.2 0 0 1124.63 1003.53
  L 1091.47 1003.47
  Q 1090.67 1003.46 1090.64 1004.25
  Z"
/>
<path fill="#ffffff" d="
  M 715.33 940.85
  A 0.31 0.31 0.0 0 0 715.06 940.41
  Q 695.70 940.15 675.50 939.85
  Q 669.61 939.76 663.24 940.06
  Q 658.10 940.31 654.79 942.50
  C 652.59 943.96 651.79 946.47 650.30 948.54
  Q 649.98 948.98 649.48 949.20
  A 0.56 0.56 0.0 0 1 648.69 948.73
  Q 648.09 940.40 648.80 932.54
  Q 648.85 931.99 649.40 932.10
  Q 660.15 934.34 672.25 934.41
  Q 694.39 934.55 718.00 934.46
  Q 725.15 934.43 731.79 933.23
  Q 732.59 933.08 732.84 933.98
  A 0.95 0.94 -37.6 0 1 732.74 934.72
  Q 715.34 962.88 699.83 987.04
  Q 679.98 1017.97 663.31 1045.49
  A 0.34 0.34 0.0 0 0 663.50 1045.99
  Q 664.08 1046.18 664.67 1046.20
  Q 681.56 1046.66 714.21 1046.53
  C 725.50 1046.48 731.85 1039.83 735.76 1030.15
  Q 736.31 1028.80 737.73 1028.09
  Q 738.33 1027.80 738.91 1029.12
  A 1.08 1.08 0.0 0 1 738.97 1029.82
  L 734.01 1049.49
  A 1.70 1.70 0.0 0 1 732.39 1050.77
  Q 697.53 1051.36 651.38 1050.98
  Q 648.97 1050.96 646.73 1050.68
  A 0.41 0.41 0.0 0 1 646.44 1050.04
  Q 648.97 1046.44 650.71 1043.67
  Q 677.49 1001.21 694.33 975.13
  Q 704.70 959.06 711.82 947.34
  Q 713.71 944.23 715.33 940.85
  Z"
/>
<path fill="#ffffff" d="
  M 774.12 958.82
  C 787.42 937.83 808.94 930.51 833.15 932.95
  C 860.76 935.74 880.99 955.81 884.18 983.21
  Q 886.12 999.84 881.63 1014.56
  Q 874.56 1037.72 851.53 1048.04
  Q 831.05 1057.21 810.33 1052.54
  C 790.24 1048.00 773.92 1033.62 767.96 1014.04
  C 762.62 996.48 764.07 974.68 774.12 958.82
  Z
  M 834.24 938.68
  Q 824.18 937.30 814.03 938.98
  C 801.11 941.13 789.83 951.64 784.42 962.95
  Q 778.96 974.36 778.13 986.13
  C 777.33 997.46 778.48 1008.43 782.63 1019.16
  C 787.57 1031.93 799.32 1043.49 812.58 1046.86
  Q 821.25 1049.07 832.00 1047.90
  Q 842.96 1046.71 851.77 1039.96
  C 859.80 1033.82 864.80 1026.31 868.01 1016.52
  Q 875.44 993.81 867.92 969.20
  C 863.17 953.64 850.22 940.88 834.24 938.68
  Z"
/>
<path fill="#ffffff" d="
  M 1011.90 1025.38
  Q 1012.41 989.07 1012.53 949.44
  C 1012.54 946.83 1012.18 944.27 1010.33 942.36
  Q 1008.30 940.27 1007.04 937.57
  A 1.81 1.81 0.0 0 1 1008.32 935.03
  Q 1010.65 934.55 1013.28 934.54
  Q 1022.35 934.48 1030.93 934.99
  Q 1031.72 935.04 1031.74 935.82
  Q 1031.77 936.44 1030.68 936.92
  C 1026.53 938.77 1022.07 940.94 1020.97 945.72
  Q 1020.74 946.72 1020.75 952.80
  Q 1020.79 989.27 1020.76 1025.73
  C 1020.75 1034.69 1021.18 1043.77 1021.48 1052.81
  A 0.20 0.20 0.0 0 1 1021.17 1052.98
  Q 1016.01 1049.49 1011.94 1045.07
  Q 996.98 1028.83 982.25 1013.10
  C 972.94 1003.15 962.75 993.02 953.61 982.65
  C 946.42 974.49 938.82 966.93 931.04 959.06
  Q 930.04 958.05 930.39 959.43
  Q 930.81 961.08 930.76 962.73
  Q 929.82 992.73 929.79 1022.40
  Q 929.78 1033.04 930.72 1043.72
  C 930.97 1046.58 935.43 1048.18 937.60 1049.22
  A 0.70 0.70 0.0 0 1 937.67 1050.44
  Q 936.88 1050.94 935.91 1050.95
  Q 926.80 1051.06 917.48 1051.12
  Q 916.35 1051.13 915.51 1050.69
  A 0.86 0.85 -51.9 0 1 915.35 1049.29
  C 917.70 1047.24 920.48 1045.68 920.85 1042.24
  Q 921.33 1037.76 921.38 1033.66
  Q 921.77 1000.20 921.70 959.63
  Q 921.68 946.88 920.53 933.88
  A 1.10 1.10 0.0 0 1 922.13 932.80
  Q 924.14 933.82 925.44 935.23
  Q 949.39 961.21 973.34 986.83
  Q 990.15 1004.82 1011.71 1025.45
  A 0.11 0.11 0.0 0 0 1011.90 1025.38
  Z"
/>
<path fill="#ffffff" d="
  M 440.21 1045.98
  Q 457.76 1046.58 469.61 1045.88
  Q 478.88 1045.33 485.96 1036.42
  Q 488.90 1032.73 491.93 1026.42
  A 0.26 0.25 5.2 0 1 492.09 1026.29
  Q 492.88 1026.10 492.98 1026.83
  Q 493.11 1027.77 492.93 1028.46
  C 490.97 1035.95 487.67 1043.06 485.12 1050.16
  A 0.84 0.83 9.8 0 1 484.35 1050.70
  Q 449.98 1051.18 420.33 1050.68
  Q 417.22 1050.63 420.05 1049.33
  C 424.36 1047.36 428.25 1046.19 428.42 1040.75
  Q 428.69 1032.37 428.71 1023.72
  Q 428.80 986.29 428.59 948.68
  Q 428.58 946.94 428.50 945.19
  C 428.28 940.47 423.90 939.12 421.09 936.31
  A 0.55 0.55 0.0 0 1 421.23 935.43
  Q 421.63 935.25 422.05 935.25
  Q 445.44 935.19 470.09 934.41
  Q 476.01 934.23 483.18 932.75
  A 0.95 0.95 0.0 0 1 484.32 933.70
  L 484.08 947.55
  A 0.41 0.41 0.0 0 1 483.50 947.92
  Q 482.79 947.60 482.36 946.94
  C 480.17 943.57 478.41 939.97 473.74 939.94
  Q 457.95 939.84 440.76 940.08
  Q 439.39 940.10 439.39 941.47
  L 439.44 990.52
  A 0.72 0.72 0.0 0 0 440.13 991.24
  Q 454.65 991.74 467.51 991.53
  C 473.15 991.44 474.21 986.88 475.63 982.58
  A 0.84 0.84 0.0 0 1 477.13 982.39
  Q 477.64 983.17 477.62 984.16
  Q 477.42 995.32 477.53 1003.90
  A 0.42 0.42 0.0 0 1 476.81 1004.20
  L 476.19 1003.57
  Q 475.87 1003.25 475.70 1002.83
  C 474.16 999.26 471.17 996.06 467.09 996.18
  Q 453.05 996.56 439.80 996.50
  A 0.30 0.29 -90.0 0 0 439.51 996.80
  L 439.52 1045.26
  Q 439.52 1045.96 440.21 1045.98
  Z"
/>
<path fill="#ffffff" d="
  M 589.37 1010.70
  L 547.13 1010.81
  A 2.17 2.16 -78.1 0 0 545.15 1012.11
  Q 538.59 1027.14 533.68 1041.77
  C 532.72 1044.62 535.18 1047.09 537.03 1048.90
  Q 539.11 1050.93 536.20 1050.90
  L 509.72 1050.67
  A 0.74 0.74 0.0 0 1 509.07 1049.60
  Q 509.26 1049.21 509.77 1049.15
  Q 513.71 1048.69 516.57 1047.84
  C 521.05 1046.51 523.84 1042.02 525.69 1037.52
  Q 534.73 1015.49 543.72 994.62
  C 550.55 978.77 556.92 962.50 563.69 946.77
  Q 566.47 940.33 568.06 933.60
  A 0.95 0.95 0.0 0 1 569.44 932.99
  Q 570.13 933.37 570.47 934.11
  Q 574.63 943.13 578.32 951.98
  Q 595.58 993.34 612.20 1033.16
  Q 614.86 1039.51 617.85 1043.66
  C 620.90 1047.89 624.43 1048.15 629.11 1049.13
  Q 629.56 1049.23 629.87 1049.58
  Q 630.33 1050.12 629.68 1050.63
  A 0.82 0.79 24.7 0 1 629.17 1050.81
  Q 612.58 1051.30 596.35 1050.97
  A 0.48 0.48 0.0 0 1 595.89 1050.41
  Q 596.03 1049.64 596.72 1049.19
  C 599.63 1047.30 602.72 1046.13 601.41 1041.79
  Q 597.67 1029.42 592.87 1016.69
  Q 591.88 1014.06 590.16 1011.18
  Q 589.87 1010.70 589.37 1010.70
  Z
  M 548.03 1005.28
  A 0.34 0.34 0.0 0 0 548.35 1005.74
  L 587.79 1005.95
  A 0.34 0.34 0.0 0 0 588.11 1005.49
  L 568.66 953.51
  A 0.34 0.34 0.0 0 0 568.02 953.51
  L 548.03 1005.28
  Z"
/>
<path fill="#ffffff" d="
  M 679.12 1109.16
  A 18.43 18.43 0.0 0 1 660.69 1127.59
  A 18.43 18.43 0.0 0 1 642.26 1109.16
  A 18.43 18.43 0.0 0 1 660.69 1090.73
  A 18.43 18.43 0.0 0 1 679.12 1109.16
  Z
  M 661.9732 1125.1766
  A 16.01 14.11 84.9 0 0 674.6041 1107.9757
  A 16.01 14.11 84.9 0 0 659.1268 1093.2834
  A 16.01 14.11 84.9 0 0 646.4959 1110.4843
  A 16.01 14.11 84.9 0 0 661.9732 1125.1766
  Z"
/>
<path fill="#ffffff" d="
  M 738.78 1094.76
  L 738.37 1125.84
  Q 738.36 1126.54 737.66 1126.53
  L 735.02 1126.51
  Q 734.13 1126.50 734.16 1125.61
  Q 734.70 1110.23 734.37 1094.45
  Q 734.35 1093.70 733.65 1093.96
  Q 732.95 1094.21 732.40 1094.74
  Q 732.04 1095.09 731.55 1095.09
  Q 728.16 1095.10 725.31 1094.49
  A 0.49 0.49 0.0 0 1 724.93 1094.10
  L 724.87 1093.71
  A 0.66 0.66 0.0 0 1 725.52 1092.94
  Q 728.89 1092.92 731.99 1092.65
  C 733.97 1092.48 735.21 1090.95 737.34 1091.50
  Q 742.95 1092.94 748.68 1092.82
  A 0.56 0.55 89.5 0 1 749.24 1093.38
  L 749.24 1093.75
  Q 749.24 1094.64 748.34 1094.72
  Q 743.48 1095.10 739.68 1094.08
  Q 738.80 1093.84 738.78 1094.76
  Z"
/>
<path fill="#ffffff" d="
  M 564.65 1096.07
  Q 564.60 1094.34 564.33 1092.53
  Q 564.23 1091.79 564.97 1091.71
  Q 566.76 1091.53 568.54 1091.93
  Q 569.36 1092.12 569.04 1092.90
  C 568.49 1094.22 568.03 1095.45 568.03 1096.92
  Q 567.95 1109.34 568.26 1122.58
  Q 568.28 1123.20 568.73 1123.62
  Q 569.33 1124.18 569.63 1124.89
  A 0.92 0.92 0.0 0 1 569.13 1126.11
  Q 567.05 1126.96 564.86 1126.48
  Q 564.17 1126.33 564.22 1125.62
  Q 565.09 1111.39 564.65 1096.07
  Z"
/>
<path fill="#ffffff" d="
  M 814.25 1096.23
  Q 814.81 1094.51 812.73 1094.40
  Q 808.52 1094.18 804.48 1093.91
  A 1.25 1.25 0.0 0 0 803.15 1095.09
  Q 802.43 1109.25 802.98 1123.11
  A 0.96 0.96 0.0 0 0 804.04 1124.03
  Q 808.15 1123.61 812.15 1123.50
  C 813.63 1123.46 815.01 1123.03 816.35 1122.44
  A 0.72 0.72 0.0 0 1 817.36 1123.00
  L 817.51 1124.07
  A 1.96 1.95 -5.3 0 1 815.67 1126.28
  L 799.22 1127.08
  A 0.95 0.95 0.0 0 1 798.23 1126.09
  Q 798.96 1107.87 798.81 1092.13
  A 0.49 0.49 0.0 0 1 799.33 1091.63
  L 814.96 1092.62
  A 0.78 0.77 -0.9 0 1 815.67 1093.30
  Q 815.84 1095.00 814.25 1096.23
  Z"
/>
<path fill="#ffffff" d="
  M 586.92 1110.70
  L 586.45 1110.54
  Q 585.77 1110.32 586.41 1110.00
  Q 587.56 1109.42 587.65 1108.26
  Q 588.23 1100.56 587.38 1092.57
  Q 587.31 1091.93 587.95 1091.95
  L 592.23 1092.09
  A 0.58 0.57 7.5 0 1 592.77 1092.79
  Q 592.34 1094.80 592.31 1096.78
  Q 592.12 1109.05 592.36 1121.14
  Q 592.40 1123.25 592.78 1125.20
  A 0.87 0.86 -11.2 0 1 592.09 1126.22
  Q 589.72 1126.68 587.81 1126.02
  Q 587.18 1125.81 587.27 1125.16
  C 587.46 1123.85 587.97 1122.77 587.97 1121.40
  Q 587.98 1116.53 587.81 1111.89
  A 1.30 1.29 -82.0 0 0 586.92 1110.70
  Z"
/>
<path fill="#ffffff" d="
  M 873.47 1123.79
  L 884.80 1123.80
  A 1.18 1.16 -26.3 0 1 885.50 1124.03
  Q 886.37 1124.69 886.06 1125.50
  A 0.74 0.74 0.0 0 1 885.41 1125.98
  L 868.93 1126.73
  A 1.21 1.21 0.0 0 1 867.67 1125.47
  Q 868.20 1111.13 868.02 1093.78
  Q 868.01 1092.22 869.57 1092.23
  L 870.77 1092.24
  Q 872.06 1092.26 872.02 1093.54
  Q 871.61 1107.36 872.39 1122.76
  A 1.08 1.08 0.0 0 0 873.47 1123.79
  Z"
/>
<path fill="#ffffff" d="
  M 814.25 1096.23
  Q 814.05 1096.92 813.63 1097.40
  A 1.19 1.19 0.0 0 1 812.84 1097.82
  L 806.54 1098.58
  Q 806.12 1098.63 805.92 1098.26
  Q 805.83 1098.10 805.85 1097.92
  Q 805.90 1097.56 806.24 1097.67
  Q 808.12 1098.27 808.74 1098.07
  Q 810.92 1097.38 813.17 1096.98
  C 813.64 1096.89 813.97 1096.57 814.25 1096.23
  Z"
/>
<ellipse fill="#ffffff" cx="0.00" cy="0.00" transform="translate(805.38,1102.61) rotate(94.6)" rx="1.54" ry="0.25"/>
<path fill="#ffffff" d="
  M 811.80 1109.82
  Q 811.66 1108.72 811.01 1108.66
  Q 810.18 1108.58 810.98 1108.34
  Q 812.71 1107.83 813.13 1109.89
  A 1.79 1.79 0.0 0 1 812.01 1111.93
  Q 810.85 1112.37 809.25 1111.86
  Q 809.17 1111.84 809.18 1111.76
  L 809.20 1111.49
  Q 809.20 1111.43 809.26 1111.45
  Q 810.31 1111.77 811.18 1111.19
  A 1.44 1.43 69.6 0 0 811.80 1109.82
  Z"
/>
<ellipse fill="#ffffff" cx="0.00" cy="0.00" transform="translate(570.33,1109.82) rotate(18.0)" rx="1.72" ry="1.07"/>
<path fill="#ffffff" d="
  M 805.48 1118.54
  Q 805.61 1118.38 805.68 1118.57
  Q 806.25 1119.96 805.36 1121.10
  Q 804.78 1121.83 804.76 1120.90
  Q 804.73 1119.53 805.48 1118.54
  Z"
/>
</svg>
